<?xml version="1.0" encoding="UTF-8" standalone="no"?>
<svg xmlns:rdf="http://www.w3.org/1999/02/22-rdf-syntax-ns#" xmlns="http://www.w3.org/2000/svg" height="1694.3pt" width="2470.1pt" version="1.1" xmlns:cc="http://creativecommons.org/ns#" xmlns:dc="http://purl.org/dc/elements/1.1/" viewBox="0 0 2470.1113 1694.3113">
<g transform="translate(42.078)">
<g>
<path d="m1688.2 191.37c-40.4 0.57725-81.935 11.548-113.69 37.391-11.284 8.7488-20.787 20.023-26.197 33.328-16.791 35.577-21.984 77.04-12.238 115.33 9.366 29.5 26.095 58.023 52.304 75.474 9.5571 6.4336 20.683 9.8792 31.055 14.652 1.7931 1.3668 1.6545 3.9502 2.0664 5.7461 19.807 13.618 44.134 17.625 67.375 21.293 33.572 3.3628 69.003 0.48265 99.259-15.497 16.331-9.3634 33.652-18.365 45.686-33.299 7.1951-8.3314 12.083-18.289 16.05-28.475 13.765-31.855 21.62-67.597 15.03-102.17-5.7587-28.357-22.817-53.301-43.641-72.875-27.887-25.544-63.651-41.895-100.76-48.423-10.666-1.7531-21.484-2.5643-32.293-2.4774z" fill="#6e6eff"/>
<path d="m619.8 0h30.24c31.99 6.68 66.19 3.94 97.19 16.12 72.96 6.3 146.49 3.09 219.79 3.98 14.2 1.38 26.81-6.32 39.18-12.05 19.82-7.11 41.93-1.49 61.82-8.05h64.05c33.02 11.1 68.89 3.55 101.56 13.87 94.13-1.29 187.89 3.3 281.87 4.16 20.5 11.23 44.24 4.85 65.7 11.62 14.91 8.33 32.54 1.86 48.53 5.41 60.84 13.79 123.68 5.46 185.48 8.34 18.32 4.1 36.79 7.3 55.51 8.77 23.78 6.85 47.86-3.67 71.93-1.6 29.6-16.28 64.82-4 96.72-4.09 37.08 5.85 75.24 6.28 110.07 22.12 22.27 2.51 45.33-0.57 67.52 3.25 8.68 14.04 19.12 27.8 19.94 45.03 0.64 8.06 10.18 4.77 15.41 6.62 8.83 5.45 0.4 26.41 13.92 26.06 10.39-2.4 21.69 1.48 29.48 7.99 4.72 27.18 19.96 56.05 9.82 83.37-3.01 17.51 2.47 34.55 4.49 51.74 13.74 14.38 13.38 36.84 12.56 55.56 13.29 20.03 12.77 44.95 13.1 67.87 16.79 16.85 17.52 42.76 16.95 64.29 18.12 14.24 15.08 37.63 17.86 57.92 9.04 20.77 10.38 44.68 6.01 66.77 4.26 20.3 4.84 41.46 11.5 61.56v28.6c-6.7 20.5-9.37 42.74-22.43 60.54-3 7.58 7.62 8.65 11.17 12.62-3.38 8.73 4.86 15.59 1.96 25.01 4.63 16.36-9.8 28.36-11.74 43.3-16.07 12.19-31.04-5.25-46.81-7.96-16.2-1.87-30.77-9.65-45.18-16.71-24.11-11.95-49.47-21.36-75.36-28.54l-5.45-1.44c-15.02-5.25-29.78-11.36-43.25-19.95-26.17-16.63-60.08-8.75-86.72-24.26-23.51-13.03-51.69-6.99-76.49-15.56-16.46-5.01-36.22-2.96-49.54-15.61-25.58-6.78-52.77-12.24-79.23-7.87-28.23 10.87-58.26-0.16-87.36 2.72-32.81-4.92-67.3-8.27-97.5-21.94-13.47-3.03-22.42 9.66-33.37 14.14-42.68-3-83.74-16.79-123.9-30.72-20.69-2.63-41.19-7.04-61.68-10.45-20.986-8.7514-25.408-1.8648-61.46-14.45-17.98-2.37-42.33-7.16-57.08 3.6-13.22-1.84-26.23 1.4-39.3 2.68-80.23-2.03-160.36 3.53-240.59 5.16-24.22 6.26-49.32 6.67-73.78 11.11-35.95-2.8-72.34-3.43-107.76 4.59-73.38 1.6-149.56 1.9-218.16 30.72-34.77 10.26-71.64 1.97-106.73 10.08-9.08-4.15-19.91-9.69-29.08-1.54l-13.14 1.69c-18.11 6.73-37 10.18-55.81 13.92-25.75 16.75-57.07 18.44-84.71 30.44-15.44 7.27-36.14 1.93-48.28 15.7-8.96 7.91-21.7 6.1-32.71 6.21-33.14 14.19-66.04 29.24-98.87 44.21-20.72 5.76-40.54 13.92-59.81 23.37-11.32-1.27-21.15 4.86-32.28 4.77-9.66 10.04-22.67 15.49-34.67 22.11-11.18 6.97-24.05-1.34-35.08-4.82-5.6-4.15 3.22-8.03 6.01-10.58 0.35-6.16-6.38-9-10.11-12.51-4.78-9.71-5.81-20.35 1.09-28.93-6.4-5.31-7.93-12.65-3.28-19.68 4.92-16.96-15.3-27.13-19.45-41.84v-5.43c1.65-8.54 9.99-19.51 0-25.94v-24.68c10.45-14.16 0.72-31.85 3.75-47.55 1.03-10.74 9.78-20.96 4.29-31.8-6.78-14.13 14.63-22.35 10.62-36.5-1.77-43.63 18.69-83.28 26.46-125.12 9.61-18.36 1.69-40.96-3.82-59.95-1.83-13.29 12.74-16.35 21.35-21.58 3.57-14.9-13.66-27.84-4.78-42.12 6.79-27.29-13.22-49.21-22.91-72.8-9.78-5.48-16.77-24.66-0.23-25.03 4.03-18.34-11.11-32.77-10.52-50.23 8.45-10.86 24.99-1.6 34.12-10.63 15.87-3.62-0.62-22.28 3.65-33.12 7.2-13.5 21.83-20.18 32.8-29.69-0.64-9.67-4.84-22.33 7.02-27.21 25.5-5.09 52.18-7.12 77.57-14.87 15.35-4.56 32.49-1 46.83-9.03 18.45-12.62 42.14-5.39 62.96-7.36 18.09-2.05 35.56 3.4 51.17 12.1 23.54 1.24 50.74 7.99 69.01-11.67 14.56-17.57 38.57-14.23 58.46-19.56 29.59-9.11 60.68-3.9 90.9-6.82 19.87-8.86 39.9-16.79 61.1-21.97m1073.4 194.44c-47.94 1.39-99.7 15.35-132.19 52.63-14.59 22.5-25.85 55.11-23.68 78.01-1.71-0.66-3.18-6.92-4.01-2.56 0.79 12.48-2.08 27.11 5.67 37.92-5.54 10.94 3.89 19.76 6.73 29.81 8.68 21.21 20.31 43.12 40.31 55.63 10.4 12.1 27.82 10.96 39.91 20.31 0.22 3.53-9.75 2.52-3.57 5.36 52.94 22.62 118.14 31.91 169.55 0.41 14.97-12.17 37.92-17.33 44.25-37.73 31.2-51.06 40.97-124.64-1.48-172.29l-7.72-7.03c-15.71-19.44-38.52-34.12-62.21-42.73-21.5-14.24-49.48-12.86-71.56-17.74" fill="#ffff91"/>
<path d="m64.08 838.83s-48.401 19.826-57.672 41.652c-2.9527 6.9508 5.1424 15.129 3.204 22.428-3.1255 11.769-23.185 16.683-22.428 28.836 1.2201 19.597 41.162 22.023 41.652 41.652 0.75543 30.236-70.823 38.721-60.876 67.284 2.1364 6.1351 13.769-0.3233 19.224 3.2041 6.4673 4.1817 10.584 11.853 12.816 19.224 7.4278 24.532 7.4278 52.364 0 76.896-3.3477 11.056-17.691 17.386-19.224 28.836-1.7931 13.39 10.776 25.094 12.816 38.448 8.7121 57.02 15.543 118.47-3.204 173.02-5.2065 15.15-23.77 23.25-28.836 38.448-4.7283 14.185-4.9493 30.747 0 44.856 4.5272 12.906 22.304 18.774 25.632 32.04 7.1365 28.445-26.883 59.268-16.02 86.508 10.761 26.986 42.771 59.971 70.488 51.264 28.034-8.8066 13.206-40.662 41.623-48.14 23.416-6.1613 22.092-1.3374 41.681 12.895 22.079 16.042 44.703 32.712 70.488 41.652 52.945 18.358 110.58 21.219 166.61 22.428 70.763 1.527 159.2-66.953 211.47-19.224 8.675 7.9222-9.656 28.552 0 35.244 22.5 15.593 49.6-30.911 76.896-28.836 30.514 2.3192 49.505 45.486 80.1 44.856 16.299-0.3355 27.089-18.306 41.652-25.632 20.552-10.338 41.159-23.669 64.08-25.632 51.133-4.3791 99.283 33.234 150.59 32.04 46.357-1.0782 88.892-43.229 134.57-35.244 20.427 3.571 30.566 33.972 51.264 35.244 30.038 1.8461 50.052-39.986 80.1-41.652 50.3-2.7901 90.742 58.254 140.98 54.468 25.758-1.9414 41.985-33.231 67.284-38.448 65.264-13.458 132.04 24.502 198.65 22.428 18.428-0.5737 37.516-16.861 54.468-9.6121 7.0813 3.0279 5.1902 18.147 12.816 19.224 18.009 2.5428 23.679-32.459 41.652-35.244 41.161-6.3781 73.698 47.389 115.34 48.06 33.121 0.5341 61.103-44.474 92.916-35.244 5.1286 1.4879 4.4299 11.527 9.6121 12.816 19.473 4.8423 34.977-20.864 54.468-25.632 25.956-6.3494 53.554-6.2594 80.1-3.204 31.918 3.6738 60.794 26.283 92.916 25.632 28.028-0.5681 52.667-19.862 80.1-25.632 19.967-4.1994 44.574 5.8632 60.876-6.408 34.067-25.644 38.323-77.035 48.06-118.55 16.142-68.823 37.36-144.07 16.02-211.46-7.1002-22.423-40.906-31.282-44.856-54.468-5.7311-33.641 35.513-61.995 35.244-96.12-0.234-29.75-30.719-53.583-32.04-83.304-1.0362-23.303 13.076-44.784 19.224-67.284 6.6915-24.488 24.122-48.783 19.224-73.692-4.1213-20.959-26.243-33.735-38.448-51.264-22.514-32.334-14.53-80.144-14.53-80.144l-427.7-121.75-413.3-41.65-307.6-19.22-285.14 19.22-352.44 48.06-217.87 35.24s-227.49 76.896-240.3 76.896c-12.816 0-54.468 41.652-54.468 41.652z" fill-rule="evenodd" fill="#c89f5f"/>
<path d="m619.8 0h30.24c31.99 6.68 66.19 3.94 97.19 16.12 72.96 6.3 146.49 3.09 219.79 3.98 14.2 1.38 26.81-6.32 39.18-12.05 19.82-7.11 41.93-1.49 61.82-8.05h64.05c33.02 11.1 68.89 3.55 101.56 13.87 94.13-1.29 187.89 3.3 281.87 4.16 20.5 11.23 44.24 4.85 65.7 11.62 14.91 8.33 32.54 1.86 48.53 5.41 60.84 13.79 123.68 5.46 185.48 8.34 18.32 4.1 36.79 7.3 55.51 8.77 23.78 6.85 47.86-3.67 71.93-1.6 29.6-16.28 64.82-4 96.72-4.09 37.08 5.85 75.24 6.28 110.07 22.12 22.27 2.51 45.33-0.57 67.52 3.25 8.68 14.04 19.12 27.8 19.94 45.03 0.64 8.06 10.18 4.77 15.41 6.62 8.83 5.45 0.4 26.41 13.92 26.06 10.39-2.4 21.69 1.48 29.48 7.99 4.72 27.18 19.96 56.05 9.82 83.37-3.01 17.51 2.47 34.55 4.49 51.74 13.74 14.38 13.38 36.84 12.56 55.56 13.29 20.03 12.77 44.95 13.1 67.87 16.79 16.85 17.52 42.76 16.95 64.29 18.12 14.24 15.08 37.63 17.86 57.92 9.04 20.77 10.38 44.68 6.01 66.77 4.26 20.3 4.84 41.46 11.5 61.56v28.6c-6.7 20.5-9.37 42.74-22.43 60.54-3 7.58 7.62 8.65 11.17 12.62-3.38 8.73 4.86 15.59 1.96 25.01 4.63 16.36-9.8 28.36-11.74 43.3-16.07 12.19-31.04-5.25-46.81-7.96-16.2-1.87-30.77-9.65-45.18-16.71-24.11-11.95-49.47-21.36-75.36-28.54l-5.45-1.44c-15.02-5.25-29.78-11.36-43.25-19.95-26.17-16.63-60.08-8.75-86.72-24.26-23.51-13.03-51.69-6.99-76.49-15.56-16.46-5.01-36.22-2.96-49.54-15.61-25.58-6.78-52.77-12.24-79.23-7.87-28.23 10.87-58.26-0.16-87.36 2.72-32.81-4.92-67.3-8.27-97.5-21.94-13.47-3.03-22.42 9.66-33.37 14.14-42.68-3-83.74-16.79-123.9-30.72-20.69-2.63-41.19-7.04-61.68-10.45-20.986-8.7514-25.408-1.8648-61.46-14.45-17.98-2.37-42.33-7.16-57.08 3.6-13.22-1.84-26.23 1.4-39.3 2.68-80.23-2.03-160.36 3.53-240.59 5.16-24.22 6.26-49.32 6.67-73.78 11.11-35.95-2.8-72.34-3.43-107.76 4.59-73.38 1.6-149.56 1.9-218.16 30.72-34.77 10.26-71.64 1.97-106.73 10.08-9.08-4.15-19.91-9.69-29.08-1.54l-13.14 1.69c-18.11 6.73-37 10.18-55.81 13.92-25.75 16.75-57.07 18.44-84.71 30.44-15.44 7.27-36.14 1.93-48.28 15.7-8.96 7.91-21.7 6.1-32.71 6.21-33.14 14.19-66.04 29.24-98.87 44.21-20.72 5.76-40.54 13.92-59.81 23.37-11.32-1.27-21.15 4.86-32.28 4.77-9.66 10.04-22.67 15.49-34.67 22.11-11.18 6.97-24.05-1.34-35.08-4.82-5.6-4.15 3.22-8.03 6.01-10.58 0.35-6.16-6.38-9-10.11-12.51-4.78-9.71-5.81-20.35 1.09-28.93-6.4-5.31-7.93-12.65-3.28-19.68 4.92-16.96-15.3-27.13-19.45-41.84v-5.43c1.65-8.54 9.99-19.51 0-25.94v-24.68c10.45-14.16 0.72-31.85 3.75-47.55 1.03-10.74 9.78-20.96 4.29-31.8-6.78-14.13 14.63-22.35 10.62-36.5-1.77-43.63 18.69-83.28 26.46-125.12 9.61-18.36 1.69-40.96-3.82-59.95-1.83-13.29 12.74-16.35 21.35-21.58 3.57-14.9-13.66-27.84-4.78-42.12 6.79-27.29-13.22-49.21-22.91-72.8-9.78-5.48-16.77-24.66-0.23-25.03 4.03-18.34-11.11-32.77-10.52-50.23 8.45-10.86 24.99-1.6 34.12-10.63 15.87-3.62-0.62-22.28 3.65-33.12 7.2-13.5 21.83-20.18 32.8-29.69-0.64-9.67-4.84-22.33 7.02-27.21 25.5-5.09 52.18-7.12 77.57-14.87 15.35-4.56 32.49-1 46.83-9.03 18.45-12.62 42.14-5.39 62.96-7.36 18.09-2.05 35.56 3.4 51.17 12.1 23.54 1.24 50.74 7.99 69.01-11.67 14.56-17.57 38.57-14.23 58.46-19.56 29.59-9.11 60.68-3.9 90.9-6.82 19.87-8.86 39.9-16.79 61.1-21.97m163.04 48.39c-24.65 4.06-12.71 42.13 9.12 33.86 20.72-5.51 11.93-39.61-9.12-33.86m719.59 9.82c-5.8 1.39-3.6 11.21 2.37 9.75 6.99-0.66 4.3-12.34-2.37-9.75m-499 3c-5.8 1.39-3.6 11.21 2.37 9.75 6.99-0.66 4.3-12.34-2.37-9.75m-766.79 26.25c-12.3 1.73-8.08 23.62 4.78 19.08 12.3-1.73 8.08-23.62-4.78-19.08m353.24 41.6c-8.99 3.75-6.45 15.18 2.71 16.71 13.46 3.44 9.31-21.75-2.71-16.71m741.43 3.33c-19.97-2.44-15.19 33.23 0.52 36.56 6.94-3.17 8.68-11.1 11.73-17.32 1.41-2.49 10.08-6.69 4.25-8.4-7.17-0.93-9.31-11.14-16.5-10.84m179.71 23.93c-11.35 2.98-8.06 14.32 0.42 17.66 12.14 2.91 8.68-18.13-0.42-17.66m379.39 10.72c-3 5.73 12.85 8.04 10.7 1.23-3.26-1.73-7.2-1.51-10.7-1.23m-931.46 3.72c-4.84 10.8 6.56 8.2 0 0m981.69 10.55c-6.12 3.91 7.47 10.79 8.42 3.49 1.29-4.94-5.85-4.16-8.42-3.49m-247.37 13.13c-47.94 1.39-99.7 15.35-132.19 52.63-14.59 22.5-25.85 55.11-23.68 78.01-1.71-0.66-3.18-6.92-4.01-2.56 0.79 12.48-2.08 27.11 5.67 37.92-5.54 10.94 3.89 19.76 6.73 29.81 8.68 21.21 20.31 43.12 40.31 55.63 10.4 12.1 27.82 10.96 39.91 20.31 0.22 3.53-9.75 2.52-3.57 5.36 52.94 22.62 118.14 31.91 169.55 0.41 14.97-12.17 37.92-17.33 44.25-37.73 31.2-51.06 40.97-124.64-1.48-172.29l-7.72-7.03c-15.71-19.44-38.52-34.12-62.21-42.73-21.5-14.24-49.48-12.86-71.56-17.74m-882.14 7.37c-7.23 10.15 6.74 6.54 0 0m-328.93 25.54c-8.53 1.02-9.23 12.69-0.3 12.92 10.35 4.34 9.66-13.48 0.3-12.92m1583.9 50.82c-2.11 4.28 1.95 10.01 6.37 7.31 2.07-3.66-1.53-9.96-6.37-7.31m-1053.5 3.38c-5.58 3.37-9.5 10.7-1.32 13.26 10.57 6.38 11.26-15.47 1.32-13.26m-59.36 4.64c-11.91 4.93-3.34 18.87 6.35 17.68 6.23-4.94 2.09-18.56-6.35-17.68m-256.44 1.2c-24.65 4.06-12.71 42.13 9.12 33.86 20.72-5.51 11.93-39.61-9.12-33.86m612.79 34.97c-11.09 4.16-2.93 20.95 7 20.58 7.16-5.55 3.55-23.61-7-20.58m-1060.2 0.8c-7.05 3.36-0.46 12.27 5.82 8.21 5.41-2.9-1.35-9.96-5.82-8.21m1814.2 38.11c-6.15 2.01 0.1 9.69 4.31 5.84 6.31-1.31 0.24-9.2-4.31-5.84m-1590.1 21.95c-4.28 1.67-0.69 6.2 0.81 8.77 6.12 0.57 4.02-9.88-0.81-8.77m898.15 0.85c-9.73 5.05-4.64 21.88 6.01 20.71 9.78-3.38 4.93-23.01-6.01-20.71m-230.87 6.28c-13.41 1.74-3.18 28.46 7.87 19.35 6.02-7.73 3.36-20.84-7.87-19.35m980.54 0.9c-2.65 1.74-1.97 9.14 2.42 7.67 4.44-1.64 2.23-9.56-2.42-7.67m-1195.7 19c-10.65 6.8-2.96 22.31 8.94 20.64 9.45-6.59 1.64-21.95-8.94-20.64m534.66 32.69c-8.42 5-5.36 19.37 4.47 19.19 5.5-6.33 6.49-19.11-4.47-19.19m-486.7 22.22c-5.73 6.49 15.49-1.2 0 0m527.68 8.97c-3.81 5.13-1.1 16.21 7.01 12.33 6.57-5.69 3.32-15.13-7.01-12.33m486.3 7.1c-6.49 3.78-9.72 14.32 0.09 16.53 13.37 4.55 11.27-19.55-0.09-16.53m-1340.8 15.07c-6.27 1.63-5.97 13.98 2 11.43 8.39 0.31 5.64-14.52-2-11.43m603.06 12.04c-8.84 3.22-15.22 15.61-4.57 21.8 15.68 8.16 18.59-24.99 4.57-21.8m644.35 14.8c-7.05 4.69-8.15 15.75 2.11 17.81 10.29-1.15 6.31-16.14-2.11-17.81m-1703 11.17c-5.52-1.46-18.06 2.53-10.88 9.78 4.91 8.3 17.72-6.23 10.88-9.78m288.44 0.86c-4.33 4.14-0.68 15.97 6.33 10.78 7.5-3.28-0.2-13.94-6.33-10.78m276.81 5.16c-6.18 0.48-10.79 11.9-2.73 13.33 9.7 3.8 13.42-14.79 2.73-13.33m621.48 12.78c-5.38 2.57-4.12 10.9 2.1 10.85 7.9-0.32 6.91-15.24-2.1-10.85m168.79 8.17c-8.22 10.77-3 27.36 11.86 27.31 14.16-7 3.93-31.79-11.86-27.31m130.7 5.97c-14.82 6.97-0.97 24.57 10.54 18.68 6.2-7.35-2.9-17.32-10.54-18.68m-550.85 10.96c-8.33 1.77-0.83 16.03 4.86 9.06 5.12-4.53 1.34-10.15-4.86-9.06m-445.61 2.97c-6.18 2.24-6.45 14.3 1.26 13.88 11.95 3.5 10.56-19.8-1.26-13.88m403.92 9.14c-7.25 1.17-4.07 14.11 3.13 12.66 8.17-3.14 7.41-16.54-3.13-12.66m-702.92 47.97c-7.26 2.21 2.09 13.62 5.46 5.99 5.55-4.25 0.29-8.71-5.46-5.99m1654.8 10.12c-3.22 0.25-8.09 3.28-6 6.97 3.58 8.95 19.6-9.37 6-6.97m-1778.1 54.01c-5.7 2.49-20.07 7.38-11.35 14.65 8.25 12.76 19.96-14.69 11.35-14.65z" fill="#00003e"/>
<path d="m841.6 1003.4c-9.2656 0.5134-14.119 13.155-7.1543 19.545 4.008 5.6208 15.901 7.5276 17.639-0.8945 1.4184-7.3449-1.2381-18.645-10.484-18.65zm206.85 4.5566c-0.3348-0.023-0.6717-0.021-1.0078 0-7.7446 0.4504-7.1805 10.041-6.2188 15.555 0.8598 6.1424 2.1742 12.89-2.2851 17.992-17.208 26.051-34.053 52.372-48.883 79.875-2.9548 3.6057-4.8665 11.198-10.623 10.826-6.6057-6.4362-9.192-16.1-13.334-24.211-7.5553-16.469-12.536-34.288-21.127-50.352-4.6084-5.684-10.467 1.4256-12.99 5.4355-12.739 17.041-21.534 36.495-33.891 53.635-10.836-22.167-19.782-45.263-30.559-67.488-3.9075-6.8272-5.8154-15.465-11.936-20.719-6.0026-3.0763-10.893 5.6222-6.1738 9.8476 7.5944 22.263 16.692 43.962 26.527 65.33 3.6758 9.3584 8.9764 18.687 11.174 28.26-4.1613 16.008-13.283 30.206-17.645 46.104 0.31253 5.9222 6.6497 4.2581 10.27 2.8965 11.662-0.6469 16.519 11.984 19.121 21.295 1.001 4.0088 1.7728 11.332 7.7676 9.6113 6.808-4.4102 8.1736-13.722 13.938-19.301 4.9015-6.0971 12.111-13.162 20.645-9.7286 14.507 4.7229 22.549 20.893 21.559 35.316-0.006 16.043-5.2415 32.421-15.18 45.022-12.462 10.504-35.386 8.0055-41.791-8.2558-3.0919-4.2006-3.2501-12.651-9.584-13.025-5.9772 1.6824-7.4285 9.4712-11.186 13.838-6.1599 8.5545-14.235 19.569-26.021 18.754-7.2394-0.5101-12.771-5.8468-14.135-12.774-1.6471-4.1979-3.6067-12.137-9.7285-9.8535-5.3951 4.5988-5.4466 12.842-7.9258 19.135-8.8689 34.074-10.14 72.864 8.2207 104.15 8.4279 16.048 25.884 23.861 41.645 30.861 35.924 14.618 76.185 15.165 113.87 8.043 25.907-5.9753 52.627-20.057 64.455-45.033 7.3889-16.054 11.144-33.73 9.5644-51.418-0.3372-34.146-16.06-65.19-29.266-95.83-5.7942-14.758 0.7947-30.638 1.9238-45.67 0.092-5.4875 2.5084-12.627-1.3339-16.928-6.5031-2.3087-9.6814 6.806-11.762 11.66-3.4549 6.6353-3.022 16.193-9.8222 20.555-3.3964 1.551-3.3765-4.8788-4.7735-6.4726-4.0826-11.794-7.3765-23.852-11.646-35.588 16.057-35.603 38.457-68.181 51.746-105.04 3.0786-10.398 6.9289-21.869 3.9844-32.658-1.0132-2.1836-3.2428-3.5032-5.5859-3.6641zm-421.59 23.195c-1.1378 0.022-2.2686 0.242-3.3223 0.6699-3.2584 3.2737-1.7242 8.4944-3.125 12.615-3.0607 13.349-12.802 23.284-20.828 33.877-6.0721 6.9967-10.117 15.523-16.832 21.984-14.086 15.872-18.335 37.626-30.348 54.812-4.3739 0.7881-7.7896-3.6328-10.285-6.7031-10.742-17.238-17.459-37.129-31.256-52.418-3.2237-3.3991-7.7933-0.5123-10.473 2.0215-17.332 14.024-25.281 35.637-38.432 53.043-0.87922 1.3881-1.975 2.8054-3.6426 1.4121-6.4126-4.1185-10.106-11.222-14.184-17.328-1.6882-3.5973-1.0244-7.8781-2.5918-11.582-4.7406-15.222-17.208-26.707-20.701-42.369-0.39117-4.5487-3.2818-9.9494-8.1445-10.816-4.3872-0.6222-6.3878 4.635-4.8418 8.1113 3.3799 10.436 8.3006 20.314 11.836 30.707 7.0414 19.32 13.865 38.725 20.617 58.144 1.3929 5.0312-1.1651 10.153-2.457 14.977-4.6394 13.396-11.126 26.105-14.83 39.836-1.0806 2.6608-1.4964 6.5042-3.7754 8.1641-4.6976-5.3019-6.4109-12.497-8.9434-18.885-3.138-8.3596-5.2445-17.387-10.441-24.775-2.5768-3.2868-7.8613-0.7515-7.709 3.1797-0.77525 18.921 5.5636 37.159 8.8984 55.424 0.79964 4.9442 2.4053 10.203 2.0703 15.225-12.169 23.83-28.72 46.108-35.824 72.336-5.1927 18.383 1.1596 39.584 16.184 51.551 4.5485 3.3644 9.1799 6.6073 13.484 10.303 20.204 15.347 45.333 21.806 69.85 26.418 16.24 2.8255 32.378 6.2292 48.627 8.9843 27.06 2.8768 54.022-5.6385 77.873-17.863 21.629-10.058 42.2-25.49 52.396-47.642 4.1396-8.2081 5.0347-17.503 4.6113-26.562 0.15492-11.08-5.1424-21.212-9.8184-30.938-13.076-23.738-32.029-43.526-46.205-66.496-0.46444-13.135 5.3252-25.941 4.25-39.248 0.78127-3.957-4.3389-6.915-7.0703-3.7363-4.6176 5.9968-6.3567 13.84-11.285 19.584-1.6573 1.4627-4.2005-0.2443-3.7969-2.3633-2.6092-11.539-7.3325-22.679-8.3828-34.531 1.6012-6.015 5.0144-11.533 7.5137-17.262 17.371-35.644 34.686-71.42 53.248-106.46 2.2083-4.3805 5.7426-8.5217 4.8828-13.764-0.16035-3.7756 1.1082-9.4642-3.4394-11.125-1.0762-0.3636-2.2196-0.5382-3.3574-0.5156zm-224.92 7.3515c-0.26447-0.01-0.53068-0.01-0.79492 0.01-7.917 0.4332-12.155 9.9604-9.1816 16.773 1.8678 6.221 8.9958 11.52 15.486 9.0156 4.0569-2.7546 3.4753-8.4957 3.793-12.809 0.41815-5.0681-1.4841-11.172-6.959-12.605-0.7607-0.2275-1.5504-0.3537-2.3438-0.3809zm439.94 132.98c-0.73808-0.025-1.5291 0.1607-2.3477 0.2539-4.2922 4.7649-0.83914 12.084-0.97265 18.01 1.264 7.1061 2.448 15.388 7.9844 20.478 6.2212 2.084 10.621-6.169 10.928-11.377-2.5223-9.5445-7.5437-18.652-13.564-26.348-0.60469-0.7554-1.2893-0.9923-2.0273-1.0176zm-318.08 4.0059c5.3861 1.1395 11.135 4.1927 13.869 8.9004-4.5653-3.2496-10.354-5.241-14.77-8.1914 0.2721-0.2695 0.57075-0.5131 0.9004-0.709zm-50.314 6.2422c0.34429-0.01 0.69821 0.011 1.0586 0.053 0.43327-0.01 0.86566-0.01 1.2988 0.01 0.60821 0.5121-1.9917 2.2858-2.6738 3.1035-2.9208 2.4465-6.4167 5.2391-9.3262 6.9199 1.1375-4.5957 4.4782-9.9813 9.6426-10.082zm52.709 9.0293c3.632-0.026 7.8977 4.0132 8.1934 6.6211-3.1856-2.3909-7.7805-3.6277-10.48-6.002 0.62022-0.5358 1.497-0.6503 2.2871-0.6191zm-45.422 4.5527c0.28198 0.01 0.56963 0.028 0.86133 0.066 1.9019-0.2872 3.239 0.614 1.25 1.9278-3.074 3.4972-8.408 1.4837-11.525 4.8066 2.0484-3.3977 5.1844-6.8855 9.4141-6.8008zm5.1953 23.604c0.42227-0.013 0.84775-0.01 1.2734 0.014 6.601 0.5342 14.424 2.0427 18.125 8.1484 2.2617 6.1027-0.28745 12.79-2.1914 18.666-7.3459 18.378-24.197 30.734-41.229 39.533-3.1608 1.6408-6.2141 3.7105-9.9512 3.0976-6.9918 0.8021-15.195-3.9294-16.006-11.32-0.15554-8.3966 4.3926-16.015 8.4746-23.062 9.1327-14.664 22.775-26.179 37.861-34.174 1.1372-0.6413 2.3758-0.8636 3.6426-0.9024zm49.84 1.6446c11.023 1.286 20.484 8.9366 25.455 18.66 5.6345 10.349 7.3299 23.273 3.0859 34.406-1.1667 2.8222-2.4738 5.9034-5.7422 6.7363-4.1021 2.1446-9.2274 1.8759-13.588 0.6875-11.675-4.6026-19.082-16.072-23.061-27.498-2.3093-6.4232-2.0636-13.511-1.1406-20.174 1.852-6.8244 8.1188-11.773 14.99-12.818zm368.58 55.951c0.68349 0.015 1.3763 0.08 2.0781 0.1973 7.665 1.1178 10.799 10.388 12.654 16.906 3.1583 7.5499-5.7437 12.438-11.336 15.059-8.8137 5.0815-21.586-1.3325-21.422-11.834-0.21686-9.7213 7.7731-20.559 18.025-20.328zm-398.04 25.598c5.7269 0.7731 12.505 1.8467 16.154 6.7969 1.1973 4.1817-2.5973 7.8657-5.25 10.662-4.7432 4.4647-12.12 7.6861-18.471 4.9629-3.7022-1.9329-5.9307-6.0695-5.0332-10.223 1.2533-5.8666 6.5242-10.856 12.309-12.195h0.12109 0.16992zm423.11 23.248c9.0886 1.7189 8.4074 13.374 9.1816 20.562 0.64199 13.71 0.98927 28.692-6.8457 40.852-2.5254 5.8772-8.272 11.733-15.248 8.7969-9.0487-5.4097-8.0337-17.725-8.3457-26.938 0.1619-16.012 5.5435-33.964 19.654-42.994 0.51119-0.1922 1.0558-0.302 1.6035-0.2793zm-479.22 10.162 0.22461 0.07c12.677 4.1926 21.83 15.013 28.623 26.047 3.9605 6.6212 7.0206 13.714 10.377 20.633 2.5961 2.7214 7.0194 2.4296 10.512 3.4765 8.7695 0.9672 17.718 0.9029 26.48-0.1484 11.841-2.3272 23.618-7.0515 32.66-15.209 4.7438-4.5698 4.8164-11.705 6.9238-17.586 1.0326-2.7157 1.3191-6.2721 3.8789-8.0254-0.87786 11.235-3.1515 23.645-10.742 32.602-3.7704 4.1332-9.0088 6.3891-14.506 6.9746-17.155 3.0839-35.379 7.167-52.42 1.3301-2.9554-0.6027-4.3834-2.9328-5.3555-5.5976-6.9694-13.444-12.606-28.717-25.379-37.885-3.51-2.6208-7.3563-4.7464-11.277-6.6816zm693.22 234.16c-14.356 3.4721-29.982 5.1535-42.598 13.642-7.5307 4.8211-11.357 13.59-11.344 22.305-6.2445 15.836-25.11 24.647-27.639 42.311-1.3051 7.2034 7.694 9.0113 12.656 6.1894 9.6058-4.5102 12.276-16.236 20.236-22.373 4.3049-1.557 8.0726 1.8533 8.1953 6.1543 5.2678 17.524-4.3692 35.717 0.1094 53.295 1.1371 5.6043 9.0089 6.6181 11.334 1.3047 7.4441-12.516 3.8189-27.792 4.8789-41.57-0.1149-6.0865 0.1314-13.173 4.123-18.242 8.2776 5.3902 6.3542 16.785 8.7266 25.144 1.3977 5.482 2.4982 15.306 10 14.801 9.7763-4.0606 7.8836-16.691 6.5313-25.047-0.562-6.3314-4.2912-15.279 1.5214-20.023 9.5866 3.942 9.2423 16.17 12.391 24.512 0.888 5.2791 4.4151 13.676 11.137 10.451 8.2139-5.0558 4.389-16.297 1.25-23.287-5.8821-11.79-7.2694-24.903-9.5703-37.654-3.1704-9.7282-4.8115-21.216-12.672-28.438-2.6127-2.04-5.877-3.6552-9.2676-3.4746zm-429.87 7.33c-0.47081 0-0.94224 0.02-1.416 0.053-13.078 0.1554-24.642 7.2668-36.861 11.012-4.0432 1.6673-8.4196 2.2333-12.547 3.4355-8.9059 5.4484-17.034 12.707-22.492 21.693-3.7583 6.2917-5.3506 14.773-1.2598 21.26 3.231 2.5693 6.7865-0.6387 7.5781-3.9395 3.1128-7.9156 13.551-12.21 21.215-8.5293 5.7978 4.9051 5.0027 13.364 5.7188 20.033 0.67401 5.4697 0.58303 11.997 4.7852 16.096 4.2756 2.0493 9.0426-1.396 11.865-4.5019 3.952-5.4112 2.2191-12.606 2.5781-18.838 0.47841-3.8629-1.3395-8.6667 1.4883-11.879 2.5306-2.052 6.5081 0.023 6.6289 3.2422 1.6184 5.8018 0.67733 13.223 5.5625 17.703 4.1315 3.8243 11.106 1.6111 12.99-3.4961 3.9068-8.0156-0.61551-17.165 1.6953-25.465 0.27711-1.3581 2.308-3.5224 3.3281-1.4296 2.8883 3.4668 5.5198 9.4592 10.99 8.4824 5.0414-1.3679 4.5984-7.5387 3.6641-11.559-2.3196-11.354-6.5552-23.551-16.295-30.631-2.7249-1.9958-5.9211-2.7578-9.2168-2.7422zm-426.11 15.795c-5.6398-0.081-7.3534 6.4612-10.172 10.133-12.244 19.858-26.257 39.103-33.877 61.365-0.74332 4.1512-1.4512 8.9442 0.625 12.795 2.3771 3.4873 7.6044 3.4653 10.246 0.2891 8.0453-8.0837 12.418-18.939 17.865-28.781 1.8205-3.0952 3.5337-7.1779 5.666-9.5703 2.0643 3.4978-1.0058 7.4553-1.502 11.022-3.5041 12.926-7.0612 27.141-1.8086 40.125 0.56836 3.7951 5.7279 5.1555 7.8438 1.8399 8.5969-7.9604 10.127-20.155 11.752-31.113 1.2374-7.0286 1.9391-14.362 5.9043-20.537 3.8674 0.2174 5.177 4.4155 4.7598 7.6836 0.43813 7.8104-1.2841 15.785 0.59375 23.471 1.6086 3.7082 4.8012 9.0251 9.5859 7.5312 4.0952-2.2134 5.1437-7.4592 5.9824-11.672 0.96059-9.8776-0.2977-19.891 0.91015-29.728 0.45-2.5368 3.7989-0.7323 4.9941 0.3262 5.5952 6.6658 5.6042 16.152 10.289 23.377 2.5396 4.8814 9.3973 8.686 14.379 5.1485 5.1807-6.5576 5.3098-15.646 4.334-23.606-2.5195-14.898-11.54-27.563-19.518-40.018-2.1733-3.2038-4.4426-7.4015-8.9277-7.2285-13.241-1.5667-26.593-2.5946-39.926-2.8515zm488.82 18.916c-0.2107 0.012-0.42783 0.037-0.65039 0.08-5.7045 2.5074-5.602 10.363-7.9414 15.414-1.9672 7.9767-2.4392 16.994 0.48438 24.742 2.9752 3.4926 8.3044 10.594 12.602 5.8496 3.1029-12.958 2.8814-26.977 0.92969-40.228-0.43919-2.8125-2.2633-6.0335-5.4238-5.8574zm-227.14 127.8c-0.26693-0.01-0.53257 0-0.79883 0.01-6.1666 0.571-14.839 1.6784-16.451 8.9746-4.7109 24.251-0.32968 49.071 0.44531 73.428 0.89903 8.3371-0.2042 17.193 2.8203 25.135 4.0141 7.7967 13.559 9.4859 20.359 14.01 42.783 23.233 88.749 39.678 134.71 55.354 5.7421 1.9286 12.319 5.5975 18.398 3.0332 4.0832-2.7076 1.0006-7.7194-2.4062-9.3575-14.683-10.028-27.732-22.173-40.281-34.709-4.3994-2.7256-9.218 1.5877-14.004 0.9687-14.026 1.5884-26.636-5.5128-40.209-7.6191-13.228-2.9285-27.776-3.9323-39.041-12.15-3.5271-7.1271-4.2884-15.37-5.7559-22.898-3.7127-25.444-4.9309-51.104-8.498-76.57-0.80392-5.9822 0.30244-14.962-6.9102-17.283-0.77402-0.2086-1.5742-0.3023-2.375-0.3203zm390.88 0.168c-0.2805-0.013-0.56101-0.01-0.83984 0.019-15.924 4.4986-32.537 8.3783-47.418 14.869-4.3244 31.14 11.118 62.287 2.1113 92.758-8.4003 18.775-30.153 26.052-45.338 38.162-34.434 22.819-68.256 46.796-100.77 72.201-6.4133 7.2356-5.7874 13.856 10.855 7.0821 56.445-25.228 110.7-55.494 163.04-88.377 9.2847-7.5269 24.593-13.047 21.648-27.627 1.6741-35.284 3.2912-70.934 1.4414-106.11-0.83944-1.8484-2.7689-2.8859-4.7324-2.9746zm49.795 2.2754c-7.7618 0.037-15.54 0.5025-22.949 1.0761l-1.1934 0.543c-0.99955 37.082 6.4578 74.535 12.395 111.28 1.3379 10.74 3.8003 23.73 16.463 26.172 54.097 18.114 108.94 35.582 165.37 44.643 6.0926 2.5875 16.02-4.5115 8.2266-9.6113-51.341-26.445-105.59-46.84-158.42-69.945-7.2834-7.0603-2.9616-19.799-3.8672-28.975 1.0299-24.418 8.3046-49.319 6.8242-73.686-7.3462-1.1436-15.092-1.5351-22.853-1.498zm-513.93 4.6718c-14.823 0.3828-12.623 19.058-12.533 29.256-0.50426 14.567 4.0831 32.778-9.3477 43.133-17.749 18.756-41.945 29.404-61.844 45.607-33.125 24.543-67.837 47.504-98.957 74.447-3.3363 9.1683 9.4753 7.835 13.982 4.3555 66.702-34.624 138.68-59.829 201.12-102.26 14.29-7.7408 3.8218-25.674 4.8418-38.412-3.1307-16.644-0.56648-35.526-8.8262-50.693-7.9792-5.2426-19.2-4.7247-28.441-5.4356z" transform="scale(.8)" fill="#069f5f"/>
<path d="m901.22 1279.1c-13.317 0.8238-16.829 22.653-5.1035 28.115 9.6081 2.3632 21.994-6.5462 18.199-17.133-1.7275-5.7247-6.6745-11.261-13.096-10.982zm-392.17 24.752c-0.25275-0.01-0.50681 0.0003-0.76172 0.019-8.5582-0.3085-15.323 9.8437-10.166 17.205 6.641 7.025 18.459-1.9476 18.199-10.199-0.0345-3.9438-3.4803-6.9219-7.2715-7.0254z" transform="scale(.8)" fill="#08e187"/>
<path d="m882.12 1183.8c-9.4399 2.7867-16.007 11.205-22.445 18.225-5.8589 5.9658-9.7929 17.111-2.1582 23.33 3.1654 1.519 5.6043 3.5549 5.1934 7.5879 1.5462 10.284-5.0566 19.11-12.084 25.787-4.4966 5.7613 3.4792 12.847 9.3379 12.934 9.3582 0.7011 14.504-9.0463 20.098-14.918 10.628-15.105 15.828-33.983 15.834-52.348-0.81002-7.9851-3.8631-20.261-13.775-20.598zm53.043 1.3066c-11.466 1.0289-18.309 12.422-23.246 21.615-4.2973 9.5188-8.8021 20.558-5.8828 30.978 8.1832 5.5209 8.7414-11.39 16.693-8.875 4.763 8.4835-0.1384 19.757-9.3047 22.535-5.7731 4.8747 1.1643 12.159 6.0625 14.418 15.084 4.4333 31.873-5.8917 35.773-20.951 5.0929-12.752 5.074-26.961 3.2871-40.359-2.5152-9.755-10.203-18.478-20.74-19.203-0.87505-0.1202-1.7594-0.1727-2.6426-0.1582zm-445.91 35.223c-11.393 1.2684-20.261 10.003-28.756 16.955-11.592 10.98-22.74 26.305-20.516 43.084 3.91 6.2189 13.02 3.927 18.945 2.2774 8.9712-3.3399 17.678-8.3581 24.703-14.676 1.498-9.2483 3.3135-21.069 13.018-25.623 8.6339-0.8121 10.733-12.503 4.4453-17.553-3.1298-2.9329-7.5896-4.4197-11.84-4.4648zm47.17 2.0137c-11.615 0.7992-15.538 15.222-12.873 24.807 3.684 12.136 10.338 24.488 21.039 31.699 11.542 5.2547 23.714-11.119 15.672-20.635-3.0234-4.3049-11.187-5.079-11.01-11.205 2.4291-5.3859 4.4025-11.784 0.42578-17.062-2.7279-4.5676-7.8594-7.7734-13.254-7.6035z" transform="scale(.8)" fill="#bcfde2"/>
<path d="m753.07 1618.4c-0.31133 0-0.62375 0.016-0.93555 0.043-3.954-0.3542-7.673 1.3874-10.035 4.5546-2.9575 3.5166-7.8158 4.5141-12.023 2.9122-3.5668-1.2336-6.5156 1.8285-6.957 5.1796-2.1464 5.6725-2.6708 12.913-8.0879 16.582-3.7222 2.7933-7.663-0.7181-11.086-2.2051-3.8305-2.3793-8.9101-0.5086-10.551 3.6191-2.6987 4.7491-5.0721 11.329-11.045 12.629-4.0512 0.1043-9.7042-0.9775-11.715 3.6875-2.1399 5.4455-0.14406 11.699-2.4004 17.045-3.198 2.3807-7.6371 1.7563-11.311 1.2089-7.5374-2.8144-13.548-9.5505-14.975-17.488-2.1312-4.1205-7.0209-1.3527-10.068-0.068-24.419 9.7899-48.453 20.711-74.012 27.168-3.7644 0.4533-5.8148 5.6724-2.3535 7.9433 7.8403 3.2252 16.562 3.438 24.865 4.7325 7.9154 0.926 15.54 2.9636 23.543 4.4296 8.6732 2.0322 16.847 5.9722 25.609 7.5645 6.7259 0.4719 13.793 0.4743 19.832-2.9688 13.88-6.1919 27.624-12.677 41.33-19.242-10.131 5.0635-20.258 10.136-30.457 15.049-6.5695 3.791-14.712 5.6729-19.635 11.803-2.8388 4.4505-1.1709 10.066-1.418 15.031 2.0506 42.599 9.7362 84.635 10.857 127.27-0.46142 3.3179 1.092 7.8566 5.2051 6.9863 11.812-2.9395 20.2-12.647 29.498-19.723 10.552-8.24 20.24-17.441 31.07-25.412 26.27-20.253 54.003-38.703 78.814-60.789 4.897-3.9701 3.2028-10.91 3.9277-16.391-0.20599-3.9568 2.2448-9.0434-1.7227-11.906-9.255-6.5012-11.398-18.561-12.717-29.025-0.92568-9.5746-3.4244-19.079-2.4316-28.754-0.0394-6.0844-0.2038-14.111-6.4922-17.219-1.596-0.801-3.3888-1.1871-5.1719-1.1602-7.8902 1.0375-15.124 4.8528-22.529 7.5821-3.4224 1.4174-6.8242 2.8784-10.213 4.3691 7.0475-3.3156 14.11-6.6018 21.211-9.8027 4.723-1.9648 9.077-6.9995 7.1758-12.381-1.2484-8.4657-0.0285-17.209-1.9609-25.559-1.4484-4.609-5.9668-7.3269-10.637-7.2949zm-193 87.031-0.32618 0.01c-3.6877 0.1389-4.6142 4.3515-3.8613 7.3203 3.662 33.439 5.7637 67.152 10.568 100.54 2.242 13.619 4.5996 27.3 8.5156 40.545 2.6079 5.2301 9.309 5.6282 14.115 7.705 17.406 5.4968 35.422 8.7542 53.346 12.035 4.5678 0.077 5.0704-5.3773 4.9726-8.791 0.89664-45.676-7.9988-90.82-10.465-136.22 0.46311-3.4706-1.6998-6.6074-5.2402-7.0391-23.23-7.783-47.24-13.547-71.625-16.102z" transform="scale(.8)" fill="#ff8fff"/>
<path d="m660.05 1623.4c-5.864 0.6649-9.0341 6.6594-11.566 11.33-3.335 6.1212-4.058 13.139-3.6972 19.993 0.0281 7.8191 0.13649 16.131 3.7391 23.244 3.904 4.7719 12.564 6.2775 17.045 1.476 3.2275-3.4642 0.7342-8.3564 1.2351-12.502-0.12213-11.106-0.42158-22.538 3.3355-33.152 0.94995-5.7607-4.6278-10.513-10.092-10.387z" transform="scale(.8)" fill="#4d4d4d"/>
<path d="m2458.4 945.29c-0.3488-0.0201-0.72-0.0105-1.1153 0.0293-13.213 9.1966-20.76 25.368-31.68 37.258-58.651 71.608-126.27 136.13-202.37 188.77-39.635 29.539-82.749 54.242-129.41 71.002-13.922 6.555-29.774 10.737-42.027 19.844-1.4256 16.023 1.9418 33.841-1.6074 48.861-26.007 28.757-66.755 32.388-102.05 41.928-122.56 27.404-247.67 44.672-372.68 53.875-118.37 3.9553-237.43-10.965-351.49-42.723-25.005-6.305-48.884-16.8-69.75-32.219 1.3396-30.727 5.9493-61.721 10.197-91.889-8.5593-6.4318-22.886 3.253-33.633 3.2871-22.91 5.6904-47.081 7.8342-69.25 15.748-5.7197 8.5942 2.7327 19.467 3.8008 28.644 6.3453 19.379 1.935 41.796 15.148 58.789 18.054 31.557 30.233 66.077 43.988 99.639 11.589 8.3403 27.808 4.5358 41.197 7.5371 127.21 13.383 255.33 9.5388 383.02 11.475 134.9 0.4805 269.81-2.7031 404.66-6.2422 153.1-5.681 306.77-13.967 457.75-41.412 37.464-7.3844 75.515-14.93 111.44-27.307 11.778-38.629 17.602-79.964 29.476-118.84 23.266-80.463 42.259-162.51 67.035-242.7 3.7471-17.869 11.917-37.441 6.0019-55.512-8.2934-6.4174-13.96 7.4609-18.191 12.715-46.157 73.765-90.132 152.14-160.03 206.49-95.548 77.896-210.02 128.1-323.07 175.28-23.433 8.927-47.233 20.141-71.504 23.236 82.485-29.706 162.29-66.393 241.81-103.17 27.736-14.107 55.702-29.03 79.812-48.779 16.038-38.365 24.918-79.47 37.205-119.17 15.213-55.099 32.606-109.48 51.367-163.42 1.2983-3.9955 1.18-10.728-4.0507-11.029zm-883.5 248.61c-0.4044-0.01-0.8097 0.025-1.207 0.092-31.881 2.3873-63.959 2.0377-95.805 5.7519-50.649 4.6314-101.47 7.5144-152.09 12.488-5.9267-0.2358-11.715 3.8759-11.156 10.277 0.202 13.403-7.7698 24.986-8.8691 38.209 0.096 5.7361-4.4223 14.056 1.5996 17.619 16.222-3.6199 32.293-8.6064 48.688-11.822 5.5109-3.5591 3.4764-11.698 5.4609-17.402 1.6797-6.0832 1.6134-13.353 5.2109-18.543 7.4064-3.3397 16.545-1.1007 23.504 2.3164 3.9529 6.2704-0.316 13.952-0.25 20.783-1.2367 4.2322 1.3357 9.529 6.3711 8.3594 30.739-3.3478 61.283-7.5724 92.137-9.8965 20.434-1.8886 41.016-2.9908 61.478-3.7461 5.7091-3.6703 7.7719-11.541 11.976-16.92 6.1777-10.713 13.219-21.09 18.108-32.455 0.4555-3.2576-2.3216-5.0686-5.1524-5.1113zm223.55 11.982c-8.1605-0.013-16.32-0.01-24.48 0.018-11.595 0.3852-23.621-0.6014-34.892 1.9043-4.6801 6.6247-5.8811 15.826-9.0958 23.516-1.4522 5.5837-4.4932 10.97-4.7226 16.768 3.1039 5.8091 11.161 2.9299 16.523 4.2617 58.047 3.6806 116.54 2.8868 174.37 7.0449 30.616 3.7493 61.753 7.1845 90.756 18.549 12.51 4.8654 23.836 12.27 34.352 20.424 7.1537 1.529 6.3123-7.9329 6.6836-12.412 0.5716-22.189 1.6119-44.568-0.7266-66.662-2.7299-6.1051-11.324-3.836-16.623-5.3828-52.743-5.0947-105.71-7.5214-158.7-7.541-24.48-0.2489-48.962-0.4461-73.443-0.4863zm254.02 9.5312c-0.2501 0.012-0.5025 0.037-0.7519 0.033-4.6701 1.2225-3.1528 6.5509-3.1074 10.064 0.5825 9.4235 0.8716 18.921 1.7949 28.289 0.7327 3.9799 5.5933 3.6427 8.1972 1.6953 17.928-8.2742 36.23-15.703 54.328-23.58 3.5372-2.112 1.6117-7.7443-2.3828-7.5273-19.442-1.2688-38.554-3.4677-57.332-8.9219-0.2465-0.063-0.4959-0.066-0.7461-0.055zm-772.21 4.3828c-0.2977-0.01-0.6047 0.01-0.9219 0.041-35.795 3.4566-71.366 9.2437-106.77 15.496-7.9907 0.9246-7.097 10.698-8.6211 16.494-3.3603 22.376-6.8345 45.004-7.3886 67.562 2.8182 7.1486 10.684-0.4001 15.338-1.8223 33.297-15.587 66.925-33.108 104.06-36.91 6.5192-1.9377 3.9045-10.504 5.1641-15.637 0.654-14.064 2.9835-27.925 3.6601-41.955-0.8454-2.1396-2.4356-3.2206-4.5195-3.2696zm1122.5 203.78c-0.2505-0.01-0.511-0.01-0.7832 0-62.814 9.8624-125.73 18.682-189.17 23.262-126.64 10.463-253.47 18.361-380.59 19.566-178.85 2.7867-357.96 5.7473-536.7 2.6523-54.542-2.2839-108.85-6.1695-162.91-13.42-8.9957 4.2997 0.5251 16.252 0.5879 23.328 5.4924 16.648 8.0133 34.92 15.695 50.42 27.616 2.9849 55.099 15.606 70.426 39.643 13.589 21.31 28.306 46.786 20.918 72.811-8.961 44.228-52.96 73.302-95.791 77.029-11.033 2.7699-35.993-4.3152-45.554 1.7694-2.5248 8.3924 22.054 16.458 26.353 22.129 53.584 40.548 107.56 86.035 174.68 101.39 63.206 16.588 128.83 21.015 193.96 19.373 118.47-1.398 237.22-0.2876 355.36-10.467 66.846-6.7907 134.19-17.876 197.03-42.385 25.231-10.101 44.459-30.144 68.469-42.547 46.184-28.802 85.15-67.184 125.83-102.95 68.164-64.716 128.62-139.88 165.63-226.88 1.8465-4.7683 4.3285-14.445-3.4375-14.73zm-218.56 71.273c29.245 0.04 54.396 23.998 58.619 52.242 9.1726 43.591-10.003 92.732-47.578 117.84-30 21.551-66.472 35.215-103.62 32.746-24.566 0.9694-51.531-5.8412-66.133-27.223-19.193-27.966-17.239-67.415 2.7051-94.566 33.342-51.244 93.017-78.941 153.17-80.967 0.9514-0.049 1.8984-0.074 2.8418-0.072zm-502.7 21.894c44.668 2.1806 94.793 23.623 112.88 67.242 11.524 28.945 21.06 62.22 10.758 93.195-21.203 51.563-72.612 86.856-127.77 91.266-32.283 4.1041-67.431-0.6644-92.705-22.334-34.914-26.613-56.41-69.827-54.475-113.88-2.0633-37.652 21.293-74.612 55.754-90.092 29.718-14.377 62.795-22.344 95.562-25.394z" transform="scale(.8)" fill="#a00"/>
<path d="m1072.8 1342.7c-0.1863 0.014-0.3732 0.041-0.5586 0.082-8.4817 5.2527-5.7958 18.338-11.359 26.121-9.8305 27.034-39.244 37.781-64.176 46.205-54.335 16.445-115.76 3.6134-160.75-30.213-9.579 0.036-10.26 13.899-14.365 20.324-18.239 50.802-34.275 102.62-45.947 155.34-0.62546 6.6659-4.9695 23.857 4.6074 25.551 8.9078-5.0083 6.4376-23.077 9.8848-31.586 6.5399-31.6 14.679-63.304 25.783-93.459-20.758 60.768-31.406 125.06-29.314 189.32 1.0406 23.218-1.9306 47.117 2.8711 69.934 9.5274 22.158 36.979 26.075 58.137 29.236 29.813 1.678 61.322-0.2171 88.408-13.904 5.2837-11.616 0.60844-26.668 2.0449-39.6 0.4163-79.034-3.6744-158.55 4.7148-237.04 0.47519-3.5732 2.5348-15.974 3.1602-16.393-2.5155 93.736-1.6819 187.59 0.51953 281.34-1.8272 8.0175 4.2683 13.683 12.137 12.449 38.508 1.5741 78.376 2.791 114.83-11.83 10.161-3.6584 25.089-7.1956 25.141-20.689 1.1194-19.5 0.4569-39.98-3.6367-58.777-9.6266-1.4851-10.104 16.499-21.451 14.932-8.1639 1.6039-20.93-4.3798-14.77-14.096 7.1516-18.448 28.868-29.045 31.258-49.4 0.018-6.0679-7.5198-4.9145-9.9902-6.4219-7.5501-30.146-10.759-61.615-22.803-90.553-1.1527-7.9413-9.1312-17.158-4.0371-24.85 12.549 34.576 19.449 71.082 30.305 106.34 8.868 6.236 21.122-5.1101 31.32-6.3692 10.018-4.1351 20.892-5.4362 31.141-7.9296 8.569-9.0966-0.4498-22.896-1.4785-33.42-16.877-64.858-34.428-130.82-68.123-189.24-0.897-0.9304-2.1958-1.4944-3.5-1.4004zm-713.22 14.961-0.625 0.027c-13.566 6.6597-18.973 23.331-27.137 35.246-31.429 58.301-52.968 125.43-45.021 192.21 7.6564 7.6554 21.186 2.6605 30.859 4.3125 8.8265-7.1217 2.3072-23.195 4.875-33.84 0.58416-48.187 5.3039-98.084 26.762-141.84-13.107 39.85-23.447 81.106-23.18 123.37 0.60502 17.018-0.99541 34.947 2.9102 51.299 11.962 22.828 35.022 46.106 27.117 74.053-1.2234 10.428-13.965 10.824-18.648 2.6875-6.6568-14.383-17.902-6.6862-13.592 6.877-1.0866 13.628 0.40352 31.065 15.48 36.447 44.3 22.709 94.113 35.544 144.08 32.867 16.681-1.251 35.191 1.8888 50.385-5.8046-1.4203-96.63-17.909-192.9-12.863-289.57 1.9475-9.2627-6.6309-14.333-14.908-13.795-43.921-9.3529-93.685-14.528-126.56-48.861-8.9893-6.5533-9.6151-21.438-19.936-25.682zm281.3 25.334c-0.48551-0.036-0.99553 0.04-1.4551 0.1446-16.533 11.022-31.325 25.314-50.203 32.816-20.25 10.126-42.955 14.139-64.041 20.945-3.2997 19.061-0.78414 40.444-1.1445 60.436 2.6761 76.514 9.4527 152.85 15.562 229.15-1.1995 8.8824 11.875 11.817 13.514 2.7129 1.4636-11.051-4.6457-23.057-2.1894-33.283 27.838-12.296 60.043-17.24 84.455-36.488 13.456-13.879-12.127-30.869-0.125-44.986 7.1611-13 19.976-21.942 26.684-34.777-6.9928-38.808-13.912-77.718-25.541-115.45-2.3419-9.9235 1.1432-3.1817 2.6309 1.7715 13.029 37.114 14.034 77.972 30.93 113.71 6.8882 10.712 19.645-0.6484 28.213-2.9141 8.8582-2.7532 19.029-10.005 14.41-20.56-8.48-44.334-26.331-85.922-46.172-126.21-8.3018-15.217-13.5-33.018-24.221-46.49-0.36095-0.3478-0.82113-0.4969-1.3066-0.5332zm100.85 261.66a9.99 6.7433 0 0 0 -9.9883 6.7441 9.99 6.7433 0 0 0 9.9883 6.7442 9.99 6.7433 0 0 0 9.9902 -6.7442 9.99 6.7433 0 0 0 -9.9902 -6.7441zm-43.207 18.982a8.2418 5.7443 0 0 0 -8.2402 5.7442 8.2418 5.7443 0 0 0 8.2402 5.7441 8.2418 5.7443 0 0 0 8.2422 -5.7441 8.2418 5.7443 0 0 0 -8.2422 -5.7442zm-86.662 23.477a13.487 5.4945 0 0 0 -13.486 5.4941 13.487 5.4945 0 0 0 13.486 5.4942 13.487 5.4945 0 0 0 13.486 -5.4942 13.487 5.4945 0 0 0 -13.486 -5.4941zm136.61 13.486a14.236 11.738 0 0 0 -14.236 11.738 14.236 11.738 0 0 0 14.236 11.738 14.236 11.738 0 0 0 14.236 -11.738 14.236 11.738 0 0 0 -14.236 -11.738zm-171.83 20.978a8.7413 10.24 0 0 0 -8.7422 10.24 8.7413 10.24 0 0 0 8.7422 10.24 8.7413 10.24 0 0 0 8.7402 -10.24 8.7413 10.24 0 0 0 -8.7402 -10.24zm44.705 6.4942a8.991 9.4905 0 0 0 -8.9902 9.4902 8.991 9.4905 0 0 0 8.9902 9.4902 8.991 9.4905 0 0 0 8.9902 -9.4902 8.991 9.4905 0 0 0 -8.9902 -9.4902zm56.443 7.9921a11.489 12.737 0 0 0 -11.488 12.736 11.489 12.737 0 0 0 11.488 12.738 11.489 12.737 0 0 0 11.488 -12.738 11.489 12.737 0 0 0 -11.488 -12.736zm98.402 10.488a7.4925 8.991 0 0 0 -7.4922 8.9922 7.4925 8.991 0 0 0 7.4922 8.9902 7.4925 8.991 0 0 0 7.4922 -8.9902 7.4925 8.991 0 0 0 -7.4922 -8.9922zm-48.701 18.482a9.7403 8.7413 0 0 0 -9.7402 8.7422 9.7403 8.7413 0 0 0 9.7402 8.7403 9.7403 8.7413 0 0 0 9.7402 -8.7403 9.7403 8.7413 0 0 0 -9.7402 -8.7422zm-132.12 4.9942a8.4915 11.239 0 0 0 -8.4922 11.24 8.4915 11.239 0 0 0 8.4922 11.238 8.4915 11.239 0 0 0 8.4922 -11.238 8.4915 11.239 0 0 0 -8.4922 -11.24zm83.418 31.969a9.4905 11.489 0 0 0 -9.4922 11.488 9.4905 11.489 0 0 0 9.4922 11.488 9.4905 11.489 0 0 0 9.4902 -11.488 9.4905 11.489 0 0 0 -9.4902 -11.488zm-68.932 29.971a9.99 9.7403 0 0 0 -9.9902 9.7403 9.99 9.7403 0 0 0 9.9902 9.7402 9.99 9.7403 0 0 0 9.9902 -9.7402 9.99 9.7403 0 0 0 -9.9902 -9.7403z" transform="scale(.8)" fill="#520"/>
<path d="m1536.7 1252.7c-0.4299-0.014-0.8611 0.026-1.2812 0.125-46.662 2.5463-93.804 3.1445-139.79 12.228-11.122 1.1868-9.4866 14.768-11.109 22.756-0.9238 18.515-10.828 35.509-25.709 46.355-10.449 8.7467-28.417 11.758-30.594 27.645-2.0747 9.8758-0.604 24.689 11.783 26.422 12.064 0.055 23.99 4.0067 36.045 2.3964 25.379-6.4794 47.683-21.598 69.057-36.236 36.545-26.871 68.725-59.68 96.135-95.711 1.4112-3.188-1.5315-5.8846-4.541-5.9805zm190.61 1.7754c-9.1996-0.3644-9.4068 12.115-13.012 18.305-13.015 36.499-29.583 71.469-47.226 106.01-3.2796 5.0853-10.598 18.775 1.3281 16.551 87.798-9.1171 174.84-24.331 261.36-41.617 35.249-7.6998 70.506-16.925 103.67-31.252 11.858-7.0937 5.6123-25.374-5.2109-30.328-50.313-26.86-108.83-29.891-164.64-32.594-45.126-1.9362-90.298-2.1814-135.34-5-0.3159-0.039-0.6212-0.064-0.918-0.076zm-375.12 13.92c-14.506 3.2426-28.475 9.3762-43.608 9.5781-7.0703 4.0126-2.2295 14.61-3.5722 21.518-0.025 10.458 0.9574 26.804 14.434 28.246 11.242 0.333 18.286-11.202 24.383-19.104 6.2876-11.264 11.912-23.9 12.791-36.846-0.3665-1.9696-2.4751-3.4816-4.4277-3.3926zm-77.953 16.203c-0.4007 0.0002-0.7966 0.017-1.1816 0.047-31.219 4.8709-59.596 20.225-89.379 30.088-7.0951 3.6934-16.822 10.748-14.867 19.789 8.9097 10.506 23.29 14.815 35.809 19.596 18.075 5.0784 36.048 11.93 54.578 14.627 6.8478-3.4141 2.8449-15.994 12.977-16.166 5.026-0.1882 14.483 8.2806 6.748 11.383-6.7719 0.458-7.9768 9.2128-1.5625 11.41 8.1019 5.4903 19.462-0.4029 19.795-10.154 1.1901-8.8247 6.1165-18.601 2.8848-27.08-11.03-14.282-17.633-31.953-18.834-49.863-1.1241-2.8596-4.1616-3.677-6.9668-3.6758zm-31.85 39.529c0.5456-0.023 1.0872-0.015 1.6133 0.022 8.5847-0.2614 19.303 9.4385 14.656 18.047-9.2621 7.0819-29.109 1.4016-25.525-12.438 1.3554-3.812 5.4368-5.4707 9.2558-5.6309zm939.39 176.62c-2.2921-0.04-4.6265 0.043-6.998 0.2559-73.175 1.9043-150.27 53.824-158.19 130.53-3.9204 36.454 33.597 56.381 65.053 57.943 73.789 10.305 160.86-44.951 158.22-124.94 1.1942-34.808-23.704-63.194-58.086-63.795zm-494.67 22.818c-1.7562 0.0002-3.5173 0.052-5.2832 0.1562-58.053 1.2573-126.72 27.673-141.86 89.889-14.803 54.164 12.457 120.89 69.781 136.07 63.621 27.718 145.96 5.5344 180.74-56.186 30.919-46.426 7.9858-108.31-32.826-140.45-19.125-17.917-44.212-29.489-70.555-29.486zm-532.79 9.8066c-8.8449 1.6862-2.4452 12.39-1.7832 17.941 7.129 31.448 20.738 61.146 24.992 93.123 0.046 6.6156 2.9932 19.007-6.707 20.115-6.4581-0.887-11.844-21.257-16.135-24.855-9.0919-0.6515-4.338 26.358-5.2813 32.275-0.1126 4.4013-4.2525 11.689-9.0839 7.1641-8.8793-3.5345-7.3661-35.78-11.863-42.447-7.79-4.1102-8.843 28.578-8.5235 33.709 0.5556 10.858-1.0629 25.648-13.221 29.4-5.7056 3.3791-7.744 15.243 1.334 14.852 34.579 0.6473 72.349-1.2208 101.49-22.098 22.021-15.216 29.085-44.678 22.547-69.684-8.6382-34.912-31.925-66.56-63.27-84.332-4.6042-2.1647-9.3211-4.8624-14.498-5.1641z" transform="scale(.8)" fill="#ff2a2a"/>
<path d="m1696.7 1105c-0.8187-0.015-1.6449 0-2.4805 0.057-26.212 0.7225-46.705 19.46-65.092 36.049-41.076 40.58-65.338 94.21-99.326 140.02-32.21 36.147-70.436 66.847-112.07 91.594-8.8938 5.6753-19.074 9.1151-27.92 14.748-3.9355 8.0376 7.7765 7.5066 12.646 7.9942 53.855 6.034 108.08 7.0082 162.21 5.3887 30.01-1.2637 60.345-0.657 90.059-5.3536 5.808-3.0007 5.1147-11.655 8.9804-16.654 31.033-64.805 61.156-131.3 76.729-201.88 2.3143-18.958 3.6888-42.094-12.486-55.711-8.5878-8.2017-18.964-16.013-31.244-16.244zm-40.75 121.88 0.033 0.2481c0.5276 27.93-10.819 53.752-26.311 76.244-9.593 13.697-22.289 26.634-34.777 36.309 33.779-27.871 57.902-68.668 61.055-112.8zm-359.81 2.5684c-0.7474-0.015-1.4894 0.01-2.207 0.061-9.2437 1.1241-8.3183 13.382-9.5566 20.32-1.0825 24.576-2.3204 50.46 6.6132 73.836 1.9619 6.4336 12.698 13.191 17.488 6.248-0.6034-9.6449-6.4592-18.764-6.5722-28.793-2.8396-21.302 2.3559-42.087 4.9687-63.355 0.04-6.2533-5.502-8.2124-10.734-8.3164zm79.254 1.9687c-6.6921-0.097-11.592 9.5083-3.5859 12.303 6.1752 2.9393 18.488 0.7159 16.416-8.1504-2.1303-3.8327-7.6433-3.9183-11.471-3.9981-0.4588-0.098-0.9132-0.1478-1.3594-0.1543zm-4.9726 15.596c-10.978 0.7623-10.412 15.058-12.898 22.881-3.481 17.257-6.631 36.171-20.652 48.424-5.6442 7.4321-15.834 10.498-20.514 18.449 0.021 8.7817 11.898 6.9779 17.693 5.627 24.442-5.3662 44.932-26.473 47.875-51.629 2.0424-12.854 5.7603-26.323 3.5644-39.26-2.953-4.873-10.173-4.1313-15.068-4.4922zm-125.21 76.596c-6.7368 0.3154-14.711 5.7604-11.31 13.186 2.9328 10.32 21.476 12.612 25.148 2.1191 1.2967-6.9897-5.2969-15.364-12.51-15.297-0.4344-0.025-0.879-0.029-1.3281-0.01zm68.783 20.861c-0.8042-0.022-1.6106-0.01-2.4141 0.023-14.897 1.8434-16.405 27.008-5.4355 34.852 9.1149 7.7756 21.041-1.9684 21.684-12.139 2.783-8.9259-0.5076-21.768-11.43-22.543-0.7975-0.1137-1.6001-0.1713-2.4043-0.1933zm-42.92 8.4433c-6.1549-0.222-9.3244 9.4458-2.0801 10.678 5.8383 2.2686 13.686-5.9322 6.8106-9.9199-1.2661-0.6446-2.7235-0.809-4.125-0.7031-0.2046-0.028-0.407-0.047-0.6055-0.055zm387.23 36.816c0.016 0.023 0.043 0.1172 0.088 0.3106 0.3077 2.8533-0.1977-0.4714-0.088-0.3106z" transform="scale(.8)" fill="#666"/>
</g>
<path d="m1700.8 798.52c-1.043-0.011-2.3445 0.0883-3.9453 0.33203 0.023 10.184 14.028-0.22584 3.9453-0.33203zm-391.04 34.338c-3.8916-0.11456-7.711 0.38476-10.051 1.2324-4.475 12.712-23.6 12.249-35.963 11.887 10.1-7.4875-3.4633-12.838-9.8008-7.0879 2.3875 7.075-5.1363 5.2504-10.174 5.9004 0.225 11.312 15.949 7.3375 22.986 9.75 18.75 3.95 37.325-3.3254 54.75-9.2129 5.7234-8.9977-3.1865-12.217-11.748-12.469zm359.77 6.5059c-4.7791-0.007-9.5339 0.0102-14.26 0.0391-49.188 11.138-99.426 20.05-146.68 37.963-49.262 16.075-94.575 42.1-140.65 65.6-30.45 25.588-61.861 50.425-89.799 78.963-32 25.525-47.977 63.923-70.727 96.773-20.266 35.069-34.437 73.261-43.482 112.71-2.9844-1.3568-7.0627-1.66-9.5664-0.2481-26.132 5.2218-70.697 10.513-97.801 21.844-2.988-7.3522-6.0274-14.656-8.7988-21.932-19.138-28 4.3746-61.725-3.5879-91.75-18.262-0.9125-16.801 28.163-29.076 36.838-2.675-10.762-12.899-21.45-8.2988-32.963 15-28.85 36.512-54.888 44.262-87.062 7.2375-13.538 16.851-28.636 9.9258-44.398-0.8125-13.675-24.526-15.851-26.951-2.3887-0.1375 12.312 5.9012 26.5-4.9238 36.213-19.838 23.338-29.35 54.699-49.1 76.949-11.375-26.85-20.588-54.587-32.588-81.162-0.6-3.775-6.2754-9.0254-9.0879-4.2129-11.938 23.012-27.775 43.713-39.713 66.738-17.55-29.888-34.549-61.2-42.387-94.912-3.8125-14.037-25.125-19.238-32.162-4.7129-8.4125 12.5 5.6359 24.799 16.586 28.762 16.962 30.125 24.276 64.625 39.863 95.375-0.5875 21.775-15.562 40.101-18.324 61.326-14.862-2.425-10.689-32.838-25.201-34.562-14.125 21.975 3.2879 48.025 4.5879 71.338-27.675 44.675-35.9 103.85-13.225 152.21-17.288 35.95-30.038 74-39.438 112.75-11.562 31.038-23.926 63.738-21.926 97.176 11.662 12.9-5.0496 33.087-19.35 25.887-5-21.375-25.862-35.075-27.287-57.35-14.175-63.612-43.575-121.94-73.25-179.44-0.675-13.662 11.6-25.311 7.7871-39.924-5.4-37.162-33.226-65.064-53.301-94.727-2.1375-26.138 6.2254-51.624 10.338-77.199 3.9-4.9625-4.3996-12.038-7.2871-6.1758-7.5375 14.25-14.887 28.652-22.537 42.852-7.925-1.975-6.2875-16.064-7.8125-23.102 14.938-32.262 31.287-64.011 47.35-95.424 0.425-18.562 29.112-31.788 15.975-51.676-2.65-12.912-23.575-14.95-25.4-0.088 2.5875 25.138-19.949 41.977-31.361 62.352-19.788 11.038-16.437 37.986-31.975 51.461-12.512-15.95-16.301-37.387-29.551-52.949-5.6875-4.4125-14.637-9.9246-20.975-3.5371-15.462 16.488-26.2 36.712-38.838 55.25-13.275-2.05-11.55-19.112-14.088-28.875-11.238-15.988-15.824-35.426-26.324-51.826 1.3625-14.262-4.4012-32.95-21.326-33.725-12.612 5.0125-19.262 26.525-5.2617 34.412 10.838 3.9375 7.0371 17.1 12.412 25.213 12.388 24.95 19.5 52.1 29.812 77.938-1.275 15.488-8.6246 33.189-16.037 45.764-11.175-14.8-12.988-38.312-25.625-53.562-8.1375-2.7375-9.4875 7.1609-9.875 12.398 0.625 31.288 14.725 61.113 12.588 92.613-13.525 26.688-33.614 51.575-36.576 82.35-48.938 54.912-74.724 128.29-81.861 200.95-3.075 17.562 8.1367 37.162-3.7383 52.725-12.538 25.45-39.374 48.125-36.262 78.4 7.775 15.15 25.924 0.4375 28.074-11.375 4.5625 9.9-1.2492 26.437 11.363 31.074 15.762-0.175 15.162-23.538 21.688-31.375 2.2 7.8 6.0754 16.625 14.65 18.85 7.6125 1.8125 2.7109 11.85 7.0234 16.688 39.925 30.75 91.701 35.951 138.64 48.014-8.525 21.55 11.062 53.088-12.688 67.25-50.562 43.525-110.31 75.023-159.7 120.15-8.425 3.9125-4.5867 16.164-14.387 18.227 5.1375 25.712 41.475 41.461 63.162 24.086 13-6.225 28.038-4.6613 39.926-13.674 30.412-6.75 64.999-15.35 80.387-45.75 23.288-5.075 40.426-27.4 65.201-26.562 3.225 16.362 27.073 11.425 39.148 8.6875-1.225 8.4875-13 13.949-6.875 23.611 12.125 8.6375 26.1 29.7 42.688 19.088 7.05-24.762-19.299-32.562-29.137-48.824 11.988-12.35-5.325-26.563-18.938-20.488-9.0125-23.325-35.775-7.85-53.15-6.0625-13.462 26.2-54.712 12.5-66.137 39.688-11.2 4.7125-23.887 13.038-35.912 5.6758-11.938 3.85-26.388 9.8125-37.062 8.875 56.275-26.15 113.77-51.15 165.46-85.938 2.5625-3.8125 3.5875-8.8504 1.625-13.213-6.875-24.888-3.6492-50.975-8.6992-76.15 3.8875-2.95 9.1742-1.0621 13.574-0.5996-6.975 33.825 0.83789 68.8 0.96289 102.94 48.05 29.975 102.5 49.662 156.26 67.938 13.15 5.1375 26.711 10.899 41.049 10.637 4.575-7.2125-1.4871-17.398-7.3496-21.898-17.55-11.15-33-25.413-48.412-39.176 40.988-37.4 88.425-67.124 130.21-103.7 10.725-5.1625-4.9141-27.927 11.586-19.352 22.838 11.075 49.638 8.5012 73.238 12.201-1.975 29.2 12.462 60.225 1.3867 88.4-34.262 32.85-78.136 53.824-114.84 83.887-14.875 11.7-35.513 21.287-41.4 40.725 7.7125 5.9625 18.824 6.1637 27.324 1.5762 62.088-30.288 122-64.614 181.14-100.16 13.288-7.45 14.487-25.475 13.137-38.85 0.9625-29.8 1.8742-59.638 2.1367-89.463 2.4625-1.175 4.7508-0.4734 4.9258 2.5391 3.9875 42.975 8.7633 85.888 14.488 128.69 0.4625 6.0625 7.2617 7.85 12.012 9.625 57.162 15.575 113.4 35.049 171.82 45.736 12.125 2.125 25.188 4.0633 37.125-0.1367 4.1875-4.8-0.425-10.275-5.375-11.812-57.75-28.388-117.47-53.088-176.22-78.926-1.975-23.638-0.6863-48.588 3.7637-72.275 2.225-8.2625-3.5879-28.261 11.35-26.361 23.962-1.225 45.825-12.051 68.275-18.451 9.95 17.4 30.699 27.951 45.512 42.201 40.188 22.638 68.613 60.611 111.05 79.486-25.362 5.15-43.475-37.561-69.275-19.648-7.675 25.275 22.074 35.674 36.174 51.111 17.612 5.7375 39.412-2.6504 55.938 8.1621-7.6875 3.05-20.286 6.5125-16.674 17.312 6.65 6.1875 17.3 9.4625 25.85 4.5625 16.638-8.5875 37.076-1.8863 53.176-9.5488 37.888 14.038 79.112 15.175 119.04 12.787 23.625 6.15 49.95-5.8258 74.588 3.1367 18.388-7.525 40.088-4.1992 60.062-5.8242 10.638 1.5625 11.762 16.337 22.262 17.262 25.65-10.038 51.813-24.4 80.525-17.725 24.088-1.075 62.312-3.7996 72.074 24.15 8.875 5.55 18.35-1.4754 26.787-4.5254 9.8875-5.3875 22.312-3.425 30.75-11.938 27.225-10.7 57.413-10.087 85.801-13.725 15.05-4.5625 18.038 17.688 32.238 12.988 35.388-5.5125 67.424-32.152 105.11-22.289 16.138 4.5375 43.388 3.65 49.938-15.25 3.35-8.3625-6.3871-11.936-8.6621-18.861-8.7375 0.5125-23.776 6.9242-26.738-5.4883-0.3375-7.875-9.5359-12.524-16.273-9.9492-1.8875 5.35-12.889 5.2117-12.539-0.6758 26.612-7.3875 43.864-31.45 68.477-42.963 20.288-11.825 39.474-26.112 55.236-43.562 62.225-43.125 109.41-103.06 162.89-155.85 38.675-54.688 78.862-110.87 97.887-175.8 35.175-12.688 73.825-12.988 108.22-27.963 10.5-14.088 10.151-33.451 15.301-49.826 10.675-60.85 36.986-117.4 49.424-177.81 1.225-6.6875 8.2387-2.6988 12.326-1.4863 29.138 7.7375 58.738 13.786 88.438 18.986 34.138 8.25 69.275 18.276 104.22 8.4883 24.312-6.45 63.588 0.75 72.125-29.25 16.075-3.5625 38.05 0.2504 47.65-16.725-8.4125-2.275-3.7996-15.926-14.787-12.764-10.775 1.7625-8.6379-13.174-17.15-16.674 2.625-9.025 5.2254-19.764-0.5996-28.201-46.775-23.412-97.813-36.949-148.84-47.361-9.9125-3.6625-7.8379 8.4246-11.9 12.725-10.862 2.8125-26.112-0.3492-32.887 10.801-2.025 8.6-8.4887 19.937-0.8887 27.262 16.675-6.8125 36.2-17.975 53.625-5.9746-6.6875 14.162-24.287 19.4-35.037 25.963 18.362 4.5375 37.276-8.3266 45.113-24.602 16.288 2.35 32.587 4.9625 48.662 8.625 0.4625 6.325-7.4508 7.3883-11.551 9.8008-13.45 4.9875-26.25 12.512-40.812 13.688-5.8625 1.9625-5.7996 10.563-4.5996 15.338 9.8375 5.775 21-2.0254 30.6-5.2129 13.212-6.3 34.214-12.925 33.451-30.438 24.288-3.6 45.749 11.937 59.174 31.537-4.55 5.775-11.737 8.1746-18.537 4.7246 0.4625-7.8125 1.5242-17.125-4.1758-23.438-20.175 19.175-47.323 28.151-72.273 39.301-58.188 4.0625-117.38-17.075-173.11-20.9 7.2375-51.325 34.874-99.65 35.762-152.35 2.6-15.575-19.637-23.75-26.012-7.8496-30.35 44.1-53.726 93.099-87.676 134.8-33.1 47.862-80.549 82.627-126.3 117.41-2.35 1.65-9.5133 4.4867-4.6758-3.0508 24.6-81.538 42.651-165 75.139-243.93 5.45-12.712 10.498-38.9-6.3516-41.412-6.975 1.1375-11.012 7.3879-15.125 12.463-74.588 106.75-174.2 195.44-286.74 260.71-9.3353 4.589-20.322 9.3985-31.828 14.281-8.5723-9.4303-56.15-9.9353-73.068-11.16-6.5174-80.216-24.37-159.79-67.717-228.18-25.238-41.662-66.7-68.625-106.35-94.912-59.203-44.168-136.13-49.402-207.81-49.502zm-164.1 1.12c-10.138 14.312 20.062 37.388 33.262 20.812 3.325-5.0375 10.325-16.002 1.5254-19.477-11.512-1.2625-23.212-1.1359-34.787-1.3359zm-511.34 2.207c-0.41747 0.003-0.87227 0.0602-1.3691 0.17969-5.75 0.8125-17.474 13.437-6.9238 15.1 14.775 1.3125 38.15 9.2121 46.75-6.9629-6.85-6.3375-19.438 2.1387-28 2.0137-6.3047 1.8633-4.1949-10.37-10.457-10.33zm476.36 2.4043c-16.388 0.3875-32.812 4.0621-49.1 0.59961-8.8875 5.3875-19.475 6.3379-29.588 8.4004-13.038 12.862-37.211 16.288-42.836 36.051 2.6 17.338 22.725 17.425 32.1 29.688 4.1875-7.0125 10.538-12.226 15.375-18.701-3.45-4.0375-16.901-2.6988-8.7012-10.736 10.212-19.412 40.212-6.0383 48-24.988 12.788-2.325 26.239 0.46211 38.826-3.1504 3.6-5.2 1.0488-13.887-4.0762-17.162zm220.22 2.2324c81.023-0.12033 163.24 24.623 224.99 78.205 64.938 38.312 93.939 112.95 112.83 182.15 6.8949 33.454 12.31 67.496 15.041 101.67-1.2469-0.7725-2.6841-1.0557-4.1797-0.4492-77.9-11.388-182.99-10.825-261.45-10.9-4.5781 0.8839-24.568-0.2666-34.707 3.0547 3.3261-13.007 5.7565-26.219 6.832-39.703 1.7125-29.45-17.9-66.489-50.662-65.664-53.646 5.6414-88.057 52.525-116.75 94.164-8.7532-3.2875-34.958 0.8187-39.051 0.049-111.65 4.8375-245.3 16.9-355.53 35.838-2.4824 0.9797-10.284 2.8792-16.182 5.5352 11.056-48.155 29.773-94.519 58.031-135.09 37.375-67.75 100.83-116.77 164.49-158.09 85.838-41.288 176.04-77.401 271.21-89.951 8.332-0.54023 16.7-0.81763 25.082-0.83008zm247.08 2.1934c-4.7 0.575-15.513 2.1117-10.275 9.0117 9.175 14.1 37.038-9.7492 10.275-9.0117zm-1037.4 3.29c-14.775 13.388-35.1 17.162-54.5 15.074-7.625 0.175-4.8512 10.675 0.54883 12.188 20.4 5.275 38.526-5.1375 57.301-11.312 6.8375-2.9375 3.1879-15.899-3.3496-15.949zm1018.1 1.8027c-0.4909 0.0258-1.0465 0.15039-1.6699 0.39649-3 1.825-5.2879 10.225 0.3496 8.7129 4.7578-0.26055 6.0664-9.3592 1.3203-9.1094zm66.398 5.8047c-5.888 0.0868 0.01 8.2043-5.3809 8.168-5.7875-1.2875-25.975-3.2879-19.188 8.5996 14.225 8.4625 33.701 6.4996 45.951-5.2754 2.65-12.288-13.813-8.6996-20.775-11.475-0.2152-0.0145-0.4175-0.0204-0.6074-0.0176zm-59.645 1.6895c-1.0753 0.007-2.1918 0.18867-3.3613 0.60351-2.7 8.7 13.175 2.7492 14.125 10.137 1.25 9.9375 12.575 0.69961 17.838-0.65039 0.3125-7.9875-11.262-4.6613-15.85-5.2363-4.1945-1.6453-8.0922-4.8839-12.752-4.8535zm-802.04 4.8398c-24.2 7.8875-50.625 3.1512-74.812 11.201-10.012 5.9625-15.089 20.9-9.3262 31.463 8.925 5.2125 20.139 1.2238 29.264 6.1113 20.4 10.25 39.137-5.9871 57.85-10.787 17.888 7.9625 35.837-4.3621 51.887-11.787 5.8625-4.2625 15.113-18.225 3.8379-21.525-7.3375-2.9125-0.3121 6.9871-6.5371 7.6621-32.875 7.8875-64.988 19.851-99.525 15.326 13.875-8.9875 33.438-20.225 48.238-7.2129 11.325-5.6625 26.399-9.6121 34.549-18.912-10.075-0.5125-23.949 0.0609-35.424-1.5391zm470.01 8.1016c-7.6 10.95 10.85 20.075 5.9121 31.312-11.3-0.55-13.538 12.674-23.938 14.262-45.3 5.0125-91.337 3.9508-136.54 3.9258-9.5125 15.162 13.151 18.673 15.613 31.461 9.5 4.3375 18.2-2.4488 23.438-9.6113 8.825 8.6625 21.636-0.53789 27.174-9.0879 11.712-9.0375 33.888-0.11289 34.676 14.225-36.062 31.638-49.8 80.301-52.725 126.51 0.35 12.262-7.0262 33.273 4.4238 41.023 0.7-57.238 3.225-123.87 53.875-161.51 18.825-6.0625 23.525-32.113 46.725-28.738 12.738-1.575 5.2258 17.85 15.301 16.125 4.275-8.975-1.9629-19.725 3.1621-28.725 10.038 1.6625 23.151 7.9754 28.676-5.1621 1.3375-10.388-2.3879-21.45-6.5879-30.912-11.962-5.6875-26.3-4.6246-39.188-5.0996zm767.66 4.6211c-3.0311-0.0195-6.0274 0.62695-8.502 2.1035-26.5 3-9.675 38.737 10.438 33.85 22.162-5.6625 46.764 7.9871 67.201-5.9629 6.9125-13.838-23.338-23.211-25.713-8.9238-10.638-0.5125-21.325-1.0879-31.787-3.0254 10.459-9.4238-0.8116-17.972-11.637-18.041zm-3.6954 9.7422c4.0816-0.17051 8.4434 3.498 6.0059 7.6113-5.45 1.8-17.549-1.6379-8.6992-6.8379 0.825-0.48984 1.7515-0.73409 2.6933-0.77344zm-236.31 14.924c-13.05 4.9375-27.274 1.7867-40.549 4.4492-4.25 10.162-6.4379 23.039-0.7129 33.014 31.7 10.538 70.649-2.1504 98.012 19.35 20.012-10 44.2-7.2371 63.4-18.912 5.3375-7.9625-10.499-3.7012-13.887-3.9512-34.312-1.8875-69.439 5.6137-102.08-8.5488 8.7375-22.075 50.375-20.502 61.037 0.52344 11.95 6.525 28.438 2.1504 37.926-6.4746-33.15-11.338-68.025-18.974-103.15-19.449zm-1577.8 12.47c-5.05 2.45-13.174 5.3125-14.262 10.625 8.75 10.988 32.437-8.1875 14.262-10.625zm-27.289 10.609c-2.1332-0.0192-4.5566 0.42032-6.3613 0.64063-14.9 1.675 4.8504 16.388 10.4 6.4258 2.2656-5.7266-0.48376-7.0344-4.0391-7.0664zm191.96 5.5293c-16 9.525-35.7 7.7613-53.562 12.486-15.9 3.675-13.538 27.226-5.5625 36.113 34.25 2.8625 76.698-15.475 105.15 10.713 18.925-3.9375 37.238-11.277 53.963-20.664 3.05-9.1875-3.8992-21.674-9.2617-29.049-30.212-2.725-60.4-6.4246-90.725-9.5996zm1750 15.088c3.4155 0.29555 1.1992 12.607-0.8711 16.611-35.488 88.425-53.15 182.86-84.85 272.57-52.375 40.55-115.22 63.926-175 91.301-45.575 18.612-89.651 41.075-136.74 55.75-4.8 3.0375-16.262 2.5246-13.975 10.537 15.262 0.2 29.662-6.1238 44.062-10.424 77.95-30.325 154.03-65.352 228.96-102.29 81.462-47.325 162.51-102.06 216.94-180.57 27.8-37.238 49.776-78.451 74.863-117.49 3.475-4.25 6.6492-11.85 13.449-10.037 1.575 24-7.3758 46.4-12.738 69.312-26.388 75.812-39.687 155.38-64.637 231.62-11.662 37.138-16.576 75.975-26.613 113.53-165.21 48.05-338.05 54.888-508.69 66.275-131.51 2.775-262.97 6.9379-394.59 7.8379-152.62-2.325-335.99 4.6359-487.9-16.102-1.0243-0.4114-2.0729-0.4248-3.0488-0.1836-13.452-41.345-30.03-81.447-53.639-118.27 2.292-22.995-4.4613-44.699-12.721-65.857 0.2409-0.082 0.4814-0.1638 0.709-0.2559 26.636-8.326 72.56-15.309 101.04-21.467-6.3542 30.448-9.7293 61.554-10.531 92.48 12.975 11.8 30.5 19.112 46.35 26.812 83.888 26.275 170.82 42.487 258.62 47.574 98.838 11.975 197.84-5.1746 296.22-14.6 72.925-12.788 146.29-23.875 218.19-41.85 30.4-7.175 65.5-14.439 83.875-41.264 0.075-15.398-0.076-30.936-0.5312-46.533 20.124-10.822 54.817-22.289 74.818-31.553 48.388-20.012 89.352-53.212 131.73-83.25 73.138-56.2 138.77-122.31 192.91-197.2 1.966-2.2477 3.364-3.1062 4.3203-3.0234zm-792.97 7.4258c-0.2079 0.0151-0.4406 0.0672-0.7031 0.16016-42.362 24.425-61.301 77.05-62.326 123.85 4.6 8.9625 5.5758-3.1117 3.4258-8.2617 8.3-40.088 21.086-84.763 57.236-108.84 2.6602 0.83203 5.4852-7.1366 2.3672-6.9102zm-496.12 0.64063c-1.3451 0.005-2.8445 0.28125-4.4961 0.88281-23.362 3.1-47.061 6.3004-69.273 14.338-14.362 4.2-19.162 21.9-13.875 34.662 7.1375 3.0875 16.65 12.024 22.6 2.7988 23.762-9.125 51.549 1.8262 74.174-11.924 11.85-8.5875 28.951-7.7758 39.826-16.863-11.65-8.1-29.35 0.0625-42.812-3.4375 5.2062-7.2844 3.2734-20.493-6.1426-20.457zm-326.47 4.2285c-3.8412-0.0126-7.6824 0.0297-11.521 0.14063-6.4875 0.425-19.761 14.114-11.211 16.951 7.0375-9.4875 21.074-5.9129 31.699-6.5879 22.55 9.5625 46.762 0.0508 70 2.5508 10.475 3.3 22.288 6.3613 32.4-0.0137 1.55-8.75-14.625 2.5375-13.312-4.25 3.2875-10.075-11.663-5.75-17.463-4.9375-26.775-0.97344-53.703-3.7653-80.592-3.8535zm977.89 2.4297c4.525 23.238 18.825 50.349 12.975 76.674 1.2875 33.288 3.5246 67.438-6.6504 99.801-0.65 8.3125 7.4883-3.1258 7.3633-6.6133 13.9-49.1 10.125-102.24-1.125-151.56-4.25-5.15-5.025-17.724-12.562-18.299zm332.67 32.773c-16.162 9.45-36.636 2.175-53.299 10.312-6.7625 6.6875-9.2137 19.062-4.2012 27.375 9.3625 7.575 22.125 7.7258 33.537 8.9258 34.688 3.925 69.863 9.3629 102.65 21.588 17.725-4.5 35.35-10.975 52.1-18.6 13.525-3.95 18.125-24.164 5.7754-32.264-43.362-17.387-91.1-12.138-136.56-17.338zm-1311.4 11.08c7.625 0.125 8.7238 13.762 6.1738 18.062-12.588 1.5125-19.136-13.488-6.1738-18.062zm1329.1 2.7363c34.038-0.2625 66.837 9.1621 100.64 13.287 6.475-4.65 6.3391 4.7516 3.1016 4.5391-39.388 2.75-78.889-1.4883-117.39-9.1133 3.8625-3.7 7.7379-8.7254 13.65-8.7129zm-1123.6 1.7637c8.011-0.2312 3.0664 14.23 3.582 19.375-11.2 43.088-39.699 78.95-56.299 119.66 6.8 14.188 8.5996 30.725 15.975 44.65 17.712 5.6375 12.811-29.301 24.424-32.738 2.45 20.95-11.299 42.512-1.9492 62.688 19.712 41.625 40.712 89.838 22.387 135.56-8.475 29.5-38.888 44.349-66.562 50.949-48.538 8.85-103.86 4.2512-143.42-27.674-28.4-36.05-24.125-89.062-8.7246-129.85 6.375 4.5125 4.2371 17.949 13.537 21.611 21.425 12.138 37.037-14.062 45.324-30.162 4.9 0.6 4.6383 8.5117 7.5508 11.887 7.675 19.888 36.236 20.788 49.674 6.75 11.975-19.15 18.952-44.425 9.9766-66.162-5.8625-14.612-28.7-28.088-40.463-11.75-8.7 5.8875-11.688 19.6-18.238 24.963-0.35-15.588-11.524-41.775-31.199-31.15 4.05-16.85 15.725-31.888 18.287-49.525-11.762-31.412-28.925-60.95-37.75-93.475-5.5-5.1625 1.2754-6.6488 2.8379-3.9863 12.312 26.888 25.125 53.688 36.312 81.188 1.3125 3 2.7754 8.4113 7.2129 7.2363 15.525-19.838 24.1-45.574 41.912-63.387 11.575 22.888 18.525 51.461 32.463 74.611 4.7 8.1375 14.586 1.2758 17.236-5.0117 15.287-29.312 32.426-57.651 51.801-84.426 7.125-9.7875-1.7246-22.398 2.3379-31.586 0.6547-0.1531 1.2452-0.2346 1.7793-0.25zm-421.52 21.498c6.4879 0.2982 4.1047 10.052 4.0684 14.727-23.262 41.575-43.588 86.687-65.4 130.01-0.4 14.212 6.8621 27.776 9.1621 41.764 11.738 10.188 14.975-12.463 21.088-19.025 2.7 14.1-5.55 27.675-3.875 41.65 17.462 29.812 45.475 53.924 55.088 88.074 7.8625 34.262-20.225 62.487-48.412 76.287-28.025 15.212-60.914 26.2-92.826 18.287-38.638-8.2-82.187-10.361-112.54-38.736-18.538-9.775-26.824-33.3-20.637-52.875 7-26.275 24.237-48 36.037-72.037-1.975-24.188-13.301-50.188-11.301-73 9.475 12.262 10.026 32.887 20.514 45.762 8.4375 4.7375 9.4113-10.488 11.799-15.113 4.325-17.15 15.563-32.586 16.463-50.398-11.238-29.1-19.862-59.312-32.688-87.625-4.0125-11.988 5.5246-4.1512 4.9746 1.5488 3.65 19.838 22.726 32.401 22.426 53.389 5.8125 7.6 11.362 21.636 22.324 22.023 16.212-18.65 24.088-46.123 45.488-59.523 14.888 15.45 21.188 37.711 33.338 55.398 3.4125 3.1875 9.2613 8.3258 14.049 5.3008 14.35-18.975 17.463-45.425 36.4-61.125 11.362-21.788 36.926-37.712 33.801-64.762 0.22813-0.011 0.44696-0.012 0.65625 0zm-223.45 9.7032c7.7092 0.3632 5.6809 13.234 4.0723 18.898-10.15 1.5875-16.089-13.663-6.7891-18.588 1.0172-0.252 1.9193-0.3481 2.7168-0.3105zm408.08 27.051c-4.9206-0.033-10.491 0.7129-13.434 0.2481-23.462 3.0875-46.8 7.7125-70.525 9.125-10.312-2.325-18.1 10.098-14.787 18.648 26.325 7.7125 56.774 4.4129 81.762 14.65 11.288-10.462 38.126 4.5375 40.613-12.938-20.575-6.8625-43.9 1.7496-63.963-7.9004 6.6125-7.05 20.464-1.4613 29.201-7.2363 6.2375-4.4625 17.187 2.725 19.912-6.375 2.7984-6.8484-2.4529-8.1797-8.7793-8.2227zm-501.58 27.348c-0.64201-0.017-1.3137 0.039-2.0176 0.1738-47.688 0.6-94.5 11.975-139.03 28.188-20.975 7.85-9.8617 39.476 7.6758 43.551 32.375 10.525 67.724 12.45 101.2 6.7754 14.612 5.9 26.313-5.1887 37.613-12.514 10.838-8.5125 26.261-6.6492 36.736-15.824 7.0625-8.025 5.4387-20.812 2.1387-29.85-45.462 44.675-114.84 38.949-173.31 35.799-2.9625-0.7-11.638-2.5125-6.8633-6.375 21.112-12.125 46.888-7.4984 69.988-7.0859 24.812 8.025 54.187-2.7254 73.912-19.213 4.2539-6.9024 1.5851-23.375-8.0449-23.625zm1385.7 11.644c9.2171-0.058 18.088 2.8067 25.045 10.043 19.938 11.45 22.438 38.274 17.688 58.549-15.362 71.3-49.725 147.39-82.188 212.04-0.2569 1.399 0.1258 2.8333 0.8515 4.0547-88.66 7.734-177.85 7.9989-266.19-2.3731 49.194-20.002 111.73-70.372 143.98-107.67 38.675-54.475 66.438-120.71 123.06-160.18 10.072-8.0527 24.285-14.381 37.756-14.467zm-1171.4 63.3c-14.762 9.075 11.337 10.388 15.012 18.312 12.112-5.9625-6.8117-18.5-15.012-18.312zm318.89 1.625c1.1375 7.125 22.138 28.125 5.9883 34.275-5.0875-8.725-7.2758-23.275-5.9883-34.275zm-367.47 4.6191c-0.64579 0.015-1.3422 0.05-2.0918 0.1055-8.9375 1.3375-13.849 12.825-12.486 20.963 5.8852-2.9668 34.597-21.536 14.578-21.068zm291.11 0.2676c-17.212 3.6375-34.788 6.05-51.5 11.75-17.075 4.5125-17.589 33.112-0.20117 37.938 10.988 6.5375 16.088-13.549 28.426-8.5117 20.462 3.3125 39.463-29.138 23.275-41.176zm116.34 8.5508c10.1 1.2 11.226 16.737 10.926 24.475-2.55 20.7-9.6633 42.787-26.926 55.912-4.8 4.1875-13.812-0.4738-12.875-6.5488 11.55-6.675 17.652-23.65 11.289-35.725-21.925-6.6875 8.1234-31.563 17.586-38.113zm-355.99 0.1602c-1.2325 0.026-2.4484 0.3085-3.5938 0.9023-10 8.4625 10.961 9.0133 13.299 15.988 8.3562-4.7906-1.0776-17.077-9.7051-16.891zm410.55 1.9043c24.437 0.5505 23.566 37.881 15.27 55.248-1.05 16.638-33.263 29.074-37.338 10.199 12.812-1.875 18.138-18.274 11-28.387-9.525-4.7-12.499 6.0992-17.012 11.762 0.0875-17.388 7.4996-38.911 22.85-48.424 1.8594-0.307 3.6013-0.4352 5.2305-0.3984zm-454.75 2.7578c-0.43291 0-0.88984 0.013-1.3711 0.041-14.538-0.013-22.136 33.25-5.0488 11.912 10.39 1.9496 19.84-11.904 6.4199-11.953zm1096.5 5.2343c-0.1631 0.2374-0.3315 0.4819-0.4942 0.7188-8.2061 15.396-18.415 31.634-30.156 47.922-45.075 0.5106-109.41 7.2177-153.66 13.953-2.3-9.85 7.45-23.214-2.375-30.764-8.975-2.3625-22.024-6.85-29.236 1.1875-2.8514 10.448-4.5042 21.846-6.4902 33.205-9.3185 2.5683-36.739 7.7666-47.566 12.197 0.6394-13.092 2.6243-26.004 8.0058-38.19 5.725-6.5875-4.0379-22.962 10.1-21.137 60.288-5.8 120.72-9.1129 181-15.025 16.894-3.4674 50.614 0.1659 70.869-4.0684zm252.23 12.158c71.871 0.1938 150.41 3.0516 211.35 9.6602 1.0971 0.522 2.0211 0.8112 2.8008 0.9238 1.6419 25.667 1.7015 51.384-0.3379 76.963-32.65-29.738-78.613-33.85-120.3-40.162-45.762-4.5875-137.82-3.5629-183.6-7.7129-2.4462 0.2674-7.7683-0.3868-12.461-0.1035 4.8916-12.63 9.4351-25.391 13.17-38.348 27.099-0.8634 57.56-1.3064 89.375-1.2207zm-1343.4 6.3106c-1.5995 0-3.1402 0.1031-4.5684 0.3125-23.062 11.875-44.112 32.349-50.312 58.262-0.9375 15.338 17.6 23.489 30.062 15.826 22.225-10.9 45.737-29.363 48.037-55.9 2.0234-13.081-12.022-18.478-23.219-18.5zm48.605 1.5254c-43.4 8.0625-4.9238 89.712 29.514 64.438 15.062-23.288-1.0262-62.25-29.514-64.438zm1119.2 1.957c-0.5632-0.011-1.191 0.084-1.8906 0.3047 0.1875 48.675-28.288 95.599-67.801 124.57-3.8875 2.3-14.087 13.75-3.8496 10.188 41.912-26.275 75.226-70.7 78.826-121.1-0.4078-3.7949 0.1591-13.862-5.2852-13.967zm397.39 0.1485c13.78 5.0452 43.509 9.1974 60.92 9.1757-20.689 8.6432-42.104 17.405-59.01 25.623-0.4353-11.586-1.06-23.195-1.9102-34.799zm-770.28 4.5312c-2.0453 17.018-4.6348 35.779-4.4023 54.182-36.599 0.3599-87.192 27.577-117.42 41.994 1.3634-26.79 4.6926-53.766 10.293-80.27 29.069-5.2737 85.416-14.451 111.53-15.906zm-792.24 0.3711c7.29 0.3551 15.091 5.3801 10.703 13.779-13.262 2.45-19.65 15.699-18.912 28.361-10.5 7.625-25.712 19.189-38.5 13.414-0.6625-24.475 22.111-44.202 41.898-55.039 1.4719-0.4312 3.1282-0.5976 4.8106-0.5156zm46.74 2.0371c8.8254-0.2015 16.007 9.566 10.363 17.955-5.2625 8.95 6.1113 12.461 11.361 16.424 5.725 9.975-6.6996 23.075-15.725 12.85-10.625-10.825-23.95-34.088-9.8496-46.5 1.2953-0.4687 2.5888-0.6997 3.8496-0.7285zm755.34 5.5918c4.6625 0.125 9.0754 2.1246 13.213 4.1621-6.7375 30.212-12.939 64.175 1.3984 93.188-10.1 5.1375-14.474-11.562-16.299-18.662-3.725-25.7-6.25-53.862 1.6875-78.688zm85.441 3.4668c2.7899-0.015 5.584 0.4043 8.084 1.6699 2.7125 9.4375-21.177 4.4383-13.039-1.2617 1.6078-0.2344 3.2811-0.3993 4.9551-0.4082zm-10.367 15.258c5.5125 0.35 11.214 0.7254 16.639 1.9629-0.9125 18.7-3.2387 37.863-9.2637 55.676-10.65 19.875-34.412 37.373-57.824 31.086 12.988-8.6875 29.961-19.75 36.361-36.35 8.125-16.412 6.0879-36.125 14.088-52.375zm172.88 5.8086c-42.674 56.072-102.49 110.72-161.08 131.57-1.5073 0.1231-2.7418 0.6163-3.6934 1.3027-9.3509-1.2255-18.691-2.5672-28.02-4.039-22.15 4.2625-18.688-27.163-7.6504-35.863 24.362-8.7875 46.687-29.4 48.35-56.625 2.625-7.2625-0.5875-17.599 5.4375-23.449 42.813-9.4544 101.36-10.29 146.66-12.893zm184.67 1.3828c85.144 8.9482 220.78-4.8985 298.07 35.447 14.212 2.8 22.376 26.099 3.8008 29.637-63.475 24.575-131.26 35.4-198.08 46.838-54.117 10.003-108.79 17.917-163.68 23.006 15.195-31.674 37.56-70.479 47.314-104.36 4.1912-10.134 8.4605-20.314 12.566-30.572zm-369.85 12.385c-3.9679 20.561-10.065 40.351-27.65 53.398-10.325 6.4625-17.326-5.1609-18.613-13.961-0.1465-9.4656-0.4887-19.082-0.2637-28.641 10.563 2.4626 34.46-4.6602 46.527-10.797zm-448.57 2.9863c-1.2173-0.035-2.5027 0.099-3.8574 0.4258-15.962 1.2-25.537 24.262-14.512 35.787 11.662 10.95 30.038 2.8754 36.375-9.6621-0.8043-10.105-6.239-26.215-18.006-26.551zm-562.26 6.6543c-1.5156-0.01-3.2363 0.3945-5.1562 1.3086-19.588 8.4-40.876 10.35-61.488 14.912-11.9 1.3125-17.288 17.05-10.062 25.662 15.85-1.45 32.614-4.7996 46.914-11.662 2.8625-10.238-16.988-2.1867-15.775-9.4492 17.038-0.725 34.675 2.925 51.4-1.9375 4.5668-6.9082 2.3522-18.8-5.832-18.834zm558.02 3.1387c9.9177-0.4782 14.582 17.855 3.2734 20.258-14.7 7.75-16.137-16.25-5.3242-19.9 0.70469-0.2094 1.3896-0.3255 2.0508-0.3574zm376.22 4.9629c1.4753 19.808 7.0025 38.747 20.953 54.107-5.5125 12.188 0.6129 40.737-20.662 30.512-7.9625-2.625 4.3-4.8867 6.75-7.3867 5.35-11.025-13.138-20.8-20.9-12.125-6.95 2.725 1.7371 16.587-9.6504 11.887-28.725-7.55-59.575-12.899-83.787-31.049 1.25-4.725 6.5262-9.9887 10.201-14.139 26.732-7.1053 68.641-30.6 97.096-31.807zm-771.15 10.644c-12.175 1.6875-23.338 17.674-12.588 27.887 11.662 9.5875 29.75-1.9996 32.938-14.85-0.45-9.4625-13.025-11.625-20.35-13.037zm1.6328 9.5059c10.929-0.5186 1.9414 15.256-6.5195 12.057-4.425-3.475-1.3125-11.312 4.0625-11.725 0.91172-0.1899 1.7284-0.2975 2.457-0.332zm2086.6 3.7949c-4.4343-0.022-8.877 0.079-13.33 0.3242-2.475 0.2875-3.5629 1.8879-2.5879 4.2129 44.9 32.9 112.46 10.5 151.73 52.463 45.775-6.6 89.074 16.349 126.82 36.674-16.788 5.0375-37.988 2.7379-56.088 7.4004-11.375 5.2-3.4625-12.874-12-10.699-19.062 11.662-40.438 18.674-61.375 26.137-0.95 2.2875 1.25 4.0008 1.875 6.0508-16.525 5.65-34.274 7.5496-51.611 8.4121-10.55-6.8125 12.05-4.4387 15.875-5.5137 16.538-1.375 22.138-22.636 15.812-35.674-17.925-5.95-43.738 4.9879-57.801-9.3496-32.912 0.2875-65.887-1.3008-98.762-1.1758-2.875 1.675-11.202 0.05-10.914 5.4375 11.425 14.725 35.925 16.875 46.15 30.25-24.512-3.2875-49.662-4.1129-73.625-10.088-15.012-9.4875-32.537 12.613-24.725 25.963 17.725 10.225 27.525 28.25 40.188 43.6 23.112 23.375 56.038 32.75 88.551 27.125 24.562 6.525 47.087-7.2863 69.762-14.174 32.85-17.612 75.488-7.1758 104.38-33.238 35.712-8.9 71.4-19.887 107.91-24.074 6.7375-13.4-0.8742-29.213-7.6367-41.113-54.438-30.2-111.09-57.301-171.39-73.613-42.299-3.4777-84.342-15.127-127.21-15.336zm-1351.2 9.1719c-2.0682 0.025-4.1699 0.3769-6.2363 1.1015-6.925 1.2125-10.7 9.5758-7.9375 15.926 5.225 12.85 26.199 15.574 34.111 4.1367 1.4344-11.897-8.7693-21.301-19.938-21.164zm-315.19 1.0117c-0.35113 0-0.69805 0.01-1.0371 0.041-21.212 11.738-26.563 43.538-21.15 65.438 0.5125 11.35 15.888 17.486 23.551 9.0488 15.4-17.512 15.062-43.323 10.387-64.773-0.10547-5.8946-6.483-9.7027-11.75-9.7539zm-712.88 4.7715c-1.4087-0.064-2.9793 0.1066-4.7324 0.5449-46.812 15.65-95.439 26.398-141.14 45.336-14.162 5.1625-25.974 15.626-26.986 31.676 2.8125 22.1 28.2 30.838 47.225 33.65 23.675 8.2875 49.712 8.8617 74 2.5742 30.425-2.825 61.15-5.3996 90.812-12.975 4.675-5.1-1.7246-10.737-5.5996-13.85-6.95-4.8125-3.4012-15.701-9.7012-20.576-16.862 2.025-33.774 9.8262-50.824 4.8262-16.738-3.45-2.2492 21.188-24.074 11.188 2.125-18.525-22.688-21.688-36.213-16.4-15.575-1.1875-31.764 1.625-47.076-2.1875-4.175-0.7875-2.3488-4.825 0.63867-5.8125 24.962-12.988 52.461-21.676 79.924-26.051 1.1 9.275 6.9387 16.751 11.639 24.139-8.0375 6.6125 1.2238 18.186 8.6113 12.174 0.55-11.45 10.788-16.588 17.875-23.812 0.5875-9.65-21.112 4.9879-19.887-5.6621-2.8625-13.225 14.512-17.825 24.062-16.713 2.6125 17.938 14.512 36.239 33.25 39.764 14.562-1.7625 10.074-22.062 20.824-29.412-1.075-14.05-23.011 11.236-29.523 1.2734-1.0422-10.728 0.51207-33.077-13.105-33.693zm1030.2 0.4238c9.1258-0.2644 16.824 16.638 2.9219 14.57-9.5375 5.2-18.749-12.488-6.8613-13.301 1.3031-0.8437 2.6358-1.2317 3.9394-1.2695zm-801.45 3.6074c-6.6875 6.775 7.2141 8.6258 10.727 12.113 17.262 9.375 22.373 29.087 31.336 44.824 18.75 9.725 41.638 3.6629 61.463 0.5879 20.925-3.9 25.813-29.725 25.926-46.912-12.788-3.775-11.062 19.612-16.475 26.199-17.038 15.3-43.589 19.438-64.951 12.926-8.5625-21.125-23.35-46.813-48.025-49.738zm-181.38 2.4121c-9.7 11.962 6.4137 28.252 17.076 33.664 11.65 10.238 21.599-5.2125 29.699-11.938-0.6375-7.3625-14.038-1.9391-19.875-4.2266-13.825 2.8375-16.388-15.675-26.9-17.5zm811.54 12.525c31.526 57.485 49.97 120.89 65.748 184.29-0.2437 1.8291 0.3522 4.0693 0.9629 5.7578 0.1525-0.019 0.3078-0.03 0.461-0.047 2.3245 9.4305 4.5974 18.857 6.8515 28.26-20.725 1.6-41.936 10.111-62.111 17.736-10.988-36.938-17.738-75.575-31.463-111.66-7.4625 1.9375-8.9629 10.188-6.0879 16.375 14.575 33.888 22.525 70.475 26.912 106.84 2.5375 4.5375 9.2016-1.1879 11.789 2.8496-2.6875 22.475-29.75 32.25-33.588 54.25-0.3875 12.862 16.087 14.9 25.912 12.6 8.0375-1.7 8.2746-15.486 15.225-15.861-1.8875 22.038 3.275 44.224-0.625 66.137-44.312 21.988-96.712 25.913-145.12 19.15-5.2-40.688 0.65078-82.25-1.9492-123.22 3.4375-58.375-8.3512-117.26 3.7363-175.16 1.9-5.2375-5.9496-6.8746-6.6621-1.5371-14.75 60.688-7.1254 123.69-10.838 185.49 1.6 38.338 0.11367 77.386 1.9512 115.24-41 19.8-91.489 19.826-133.26 1.2383-13.1-9.5125-11.823-28.238-13.773-42.488-2.8625-80.075 4.6988-161.77 33.299-237.35 1.9375-3.9 2.2-15.488-2.9375-8.0254-19.925 43.362-28.913 90.902-37.838 137.54-10.175-13.288 2.8637-35.839 3.7012-52.602 16.575-47.275 25.4-97.336 47.25-142.65 3.85-5.2 6.7363 3.6242 10.424 5.3867 59.362 39.712 143.95 44.249 203.29 1.9492 16.775-11.65 21.1-32.512 25.912-50.412 0.7-0.013 2.1254-0.05 2.8379-0.062zm237.49 2.0254c18.11-0.5415 14.648 16.557 8.6836 29.975-21.125 7.1625-22.65-18.912-12.6-29.625 1.4047-0.1992 2.7087-0.3135 3.916-0.3496zm1376.7 6.6797c-0.266 0-0.543 0.022-0.8301 0.059-19.388 7.2125-38.836 14.486-57.861 22.549-1.7625 5.4125 6.5879 4.6121 9.4004 3.9746 16.262-1.9 32.549-4.4875 48.387-8.6875 7.3141-1.7922 9.1495-17.965 0.9043-17.894zm-1417.9 2.584c15.887-0.1808-8.3867 9.5062-1.666 0.049 0.5984-0.027 1.1536-0.043 1.666-0.049zm-912.87 2.3496c8.5125 2.825 8.7742 17.187 15.824 23.512 36.85 40.75 94.401 45.087 144.99 55.412-7.675 99.012 10.412 197.93 12.438 296.84-68.088 12.75-141.26-0.013-201.03-34.812-5.075-12.85-3.7758-32.487-2.9258-44.637 4.2875 9.225 17.238 28.086 29.062 14.898 18.138-30.962-13.549-59.262-25.574-86.074-4.7-58.075 0.17578-119.23 24.176-172.93 0.0375-5.825-8.8137-4.2234-8.6387 1.2891-26.45 53.262-27.813 115.49-26.4 173.64-10.025 1.6625-21.124 2.7367-30.574-1.7383-8.075-35.25 3.4883-70.687 9.7383-105.22 13.4-42.6 30.737-85.149 58.912-120.17zm2397.3 23.604c-0.9347-0.03-2.0274 0.1934-3.293 0.7324-10.525 3.9-30.673 2.1504-30.648 17.463 9.9375 6.9 25.737 5.2383 35.537-1.5742 3.7516-3.7734 4.9468-16.41-1.5957-16.621zm-2115.7 2.4453c1.3219-0.081 2.2359 0.7539 2.7422 2.4883 28.9 57.662 60.2 115.81 69 180.65-12.738 1.9625-25.863 15.373-38.213 12.586-18.788-40.025-17.926-88.475-35.738-128.19-11.325-0.4625-2.7375 15.427-2 20.852 12.638 34.512 15.838 72.325 23.801 107.35-11.25 12.075-22.712 24.3-30.912 38.75-2.25 13.4 13.236 24.824 7.9238 37.699-24.55 15.162-52.413 24.775-80.088 32.6-26.288 4.7625 11.052 41.777-13.398 42.852-5.4625-97.7-18.214-195.73-15.951-293.76 39.512-8.075 82.825-21.836 111.38-53.486 0.53125-0.2313 1.0184-0.3615 1.459-0.3887zm-573.15 13.838c12.05 7.65 25.676 12.549 39.951 15.199-8.2375 3-51.864 6.5508-39.951-15.199zm2338.8 26.4c2.6625 10.875-7.1621 21.413-9.9121 32.213-49.35 99.712-125.12 184.17-211.39 253.61-29.562 28.962-64.025 52.489-100.28 72.164-29.3 28.962-72.076 37.25-110.68 46.875-96.438 23.838-196.35 25.262-295.07 28.699-140.81-3.1-288.22 19.912-422.85-32.275-52.912-25.912-99.15-63.474-144.81-100.01-1.1221-0.5524-2.0453-1.2304-2.7969-2.0039 126.75 2.4868 143.98-81.11 137.23-113.75-11.25-25.608-25.914-77.739-94.639-83.736-6.1411-23.461-12.477-46.941-19.688-70.088 13.547 3.9221 42.037 6.6762 49.014 7.7871 117.51 10.7 235.72 11.161 353.57 8.4609 164.26-1 328.49-2.3367 492.62-9.1992 126.76-10.588 254.64-13.888 379.66-38.75zm-222.54 65.783c-3.4106 0.01-6.8446 0.3027-10.27 0.9043-54.688 5.275-111.52 28.776-142.09 76.801-35.188 35.75-26.626 111.85 25.324 127.25 54.538 17.25 115.15-3.2133 156.69-40.238 33.9-32.05 46.65-86.187 27.75-129.2-10.784-21.558-33.532-35.574-57.406-35.518zm-2.9043 11.258c23.737 0.2321 47.123 13.516 55.436 36.484 13.088 43.088-5.4 93.174-42.625 118.49-41.025 30.075-99.476 40.763-147.18 21.463-25.925-10.038-28.112-42.212-24.787-65.824 10.25-37.388 39.889-65.313 69.889-87.801 25.325-10.525 51.474-20.275 79.111-22.1 3.3625-0.5094 6.7613-0.7421 10.152-0.709zm-497.26 11.586c-4.2049-0.024-8.4067 0.1484-12.588 0.5234-36.475 6.4625-74.388 14.2-105.03 36.4-21.362 17.8-37.288 44.136-37.562 72.549-7.0125 67.275 40.274 137.84 108.51 148.66 43.062 4.9375 89.177-4.8859 124.54-30.711 25.362-23.125 52.525-51.262 53.225-87.875-0.5375-30.75-8.6-61.775-25-87.938-24.559-32.716-65.453-51.377-106.1-51.611zm1.5117 12.172c18.79 0.1375 37.611 2.6864 53.75 12.775 43.725 28.588 79.576 81.062 61.551 135.25-21.262 49.925-73.9 89.25-129.65 85.375-25.575 1.2125-49.476-9.2867-73.426-16.574-63.6-28.912-79.499-127.7-28.012-174.97 23.7-24.275 57.65-35.45 90.438-41.025 8.2734-0.4531 16.808-0.8886 25.35-0.8262zm-531.71 9.6992c64.258 11.929 159.95 182.7-45 175.76-0.6813 0.6202-1.6347 1.3809-2.6387 2.1856 0.3833-3.7685 1.5477-7.5583 2.4649-10.373 24.538-7 14.311-38.949 18.236-54.986 2.6125 13.538 1.1504 32.5 18.838 36.088 13.375-1.8625 6.5508-21.814 12.113-29.514 2.7875 12.625 23.338 20.262 25.562 2.6621 1.4875-27.375-10.813-53.436-18.463-79.361-3.76-14.079-7.4175-28.262-11.113-42.465zm1348.6 28.451c-12.888 1.0125-8.2258 17.551-10.551 26.426 8.6375 7.9 20.188 4.1121 30.275 2.2246 33.45 1.5125 66.475 7.5629 99.725 11.088-1.0625 18.712-18.325 31.449-23.463 48.387 19.312-6.1125 32.064-30.711 32.539-48.486 11.088 2.8375 26.388 0.2621 34.625 3.3496-17.488 23.625-38.326 46.749-62.576 62.824 36.175 5.4625 59.676-33.888 75.826-61.25 21.85 4.3375 44.536 5.1766 65.736 12.414-23.55 26.5-59.025 43.274-93.775 50.324 3.375 10.838 24.876 3.3754 33.363 2.1504 26.638-10.388 56.726-23.988 69.301-50.938 22.4 5.0125 45.349 10.125 65.799 21.15 15.925 10.525 26.362 27.075 40.5 39.662 5.3875 3.5625-0.7996 6.7375-4.2246 7.625-31.575 9.75-64.175 16.311-95.312 27.299-23.9-2.4625-49.826 7.8262-71.113-5.7988-35.412 12.8-75.099 8.0375-112.24 13.688-11.812 4.8125 0.1488-11.287-10.139-9.5996-11.125 3.6125-26.699-3.9266-34.549 6.5234-9.9375 1.9375-20.55-1.1742-30.312 1.8633 1.825 11.538 23.65 9.7496 25.75 20.725-11.975 16.388-3.5871 45.813 16.9 49.301 55.25 3.75 111.25-2.675 164.76-15.188-2.45-5.45 0.1629-4.9875 4.5879-3.0625 57.262-2.1875 111.99-21.926 164.31-44.238 12.4-5.975 19.987-21.511 10.975-33.611-15.175-44.95-56.3-78.526-101.47-91.076-92.9-25.888-189.02-39.65-285.25-43.775zm-1357 9.1231c13.414-0.2556 13.227 18.681 19.607 29.502-0.175 15.15 3.9887 30.101 11.139 43.389 2.275 4.1375 1.2492 17.174-6.0508 13.012-4.4625-11.262-4.3254-34.762-20.025-35.375-13.825 10.55 7.7391 36.775-7.0234 46.15-11.4-8.65-0.8758-38.338-19.363-41.4-15.05 18.062 1.8867 43.75-10.801 62.525-1.6125 3.225-5.3113 0.4996-5.1113-2.2754-2.9-17.775 6.4-35.812 0.125-53.387-0.675-9.5125-15.538-10.4-18.4-1.5996-5.0625 7-10.962 21.149-22.125 17.861-1.75-20 24.301-28.024 28.051-47.049-0.8-21.762 24.562-26.038 41-29.062 3.5449-1.5371 6.4945-2.2437 8.9785-2.291zm-431.13 7.1992c15.226-0.6541 22.836 23.273 23.816 36.678-5.2875 5.9-7.7504-12.362-15.338-7.8242-10.488 7.8 2.5625 25.012-7.6875 32.975-12.575 0.8375-2.3629-22.874-16.15-24.137-18.725 0.3875 2.9121 35.037-16.775 36.85-6.225-10.762 0.87656-27.887-10.523-36.475-11.012-5.375-25.488 1.8488-27.75 13.799-7.3-14.2 10.738-29.898 22.188-37.586 16.412-1.8375 30.162-12.539 46.725-14.139 0.50703-0.073 1.005-0.1195 1.4961-0.1406zm-426.51 15.891c14.525 1.2 29.914 0.675 44.014 3.5625 11.75 17.962 31 43 19.062 64.375-16.862 1.0875-9.225-36.399-29.25-31.174-6.8 12.55 2.8629 30.023-5.9746 42.836-14.5-6.9875 5.9621-39.462-15.588-39.537-11.8 14.675-3.9512 41.613-19.389 53.738-7-12.562-1.0109-30.526 2.5391-44.113 3.025-4.2375 0.33672-12.875-5.7383-11.037-8.55 12.738-13.224 28.101-23.449 39.613-7.0375 5.35-6.6254-6.3383-4.5879-10.738 8.8375-24.412 25.324-45.775 38.361-67.525zm490.73 17.301c5.4625 10.025 2.2492 28.787 1.9492 42.324-15.512-4.425-8.4492-30.262-1.9492-42.324zm-24.299 8.375c14.193-0.3074 5.9078 19.187 9.6348 29.699 2.1625 4.9625-3.3734 7.7637-7.0859 9.4512-37.6 16.588-73.812 36.049-111.56 52.262-16.175 5.2125-30.238-7.7621-46.275-7.9746-12.638-4.6-30.375-3.2-40.9-8.0625 28.712-6.2625 55.262-19.362 82.262-29.912 2.0625 13.038 17.762 25.111 30.5 19.148 9.825-4.3875-2.3875-24.399 11.312-20.986 10.125 0.575 14.213-10.013 17.801-17.713 5.6625-1.05 9.85 6.9129 16.25 4.2129 10.238-3.3375 10.138-14.914 13.551-23.264 7.525 3.775 14.95 0.7129 19.35-6.0996 1.9875-0.4875 3.6958-0.7299 5.1641-0.7617zm-91.486 5.1309c3.9044 0.2329 7.5562 4.2101 4.6719 8.3437-3.1875 13.238-3.5496 26.775-1.9121 40.312-2.475 4.925-8.9371 2.5867-12.35 0.074-4.2375-15.75-6.2012-36.262 6.9238-48.25 0.85078-0.389 1.765-0.5342 2.666-0.4804zm2156 25.793c-35.875 27.238-79.275 41.262-121.66 54.75-0.45 4.4125 6.8629 3.3629 10.213 4.5879 40.6-2.2 82.573-17.362 109.71-48.75 2.725-1.6125 5.3883-10.025 1.7383-10.588zm-2046.1 12.1c11.088 0.5939 5.3199 19.618 7.4043 27.615 3.05 16.762 1.2629 38.525 17.65 48.725-2.6875 6.6 0.58594 14.136-2.4141 20.424-33.675 30.65-73.537 53.5-107.1 84.338-10.825 6.85-20.212 19.788-32.6 21.938-0.1125-47.35-10.688-94.113-10.938-141.46 0.925-4.725 6.125-6.1746 9.8125-8.1621 38.025-17.638 74.576-39.037 114.18-52.975 1.5352-0.3656 2.8608-0.5009 4.0078-0.4395zm-211.69 43.7c25.038 2.9625 50.125 8.6746 73.963 17.037 1.95 48 12.475 96.062 10.312 143.94-21.612-3.8625-44.664-7.8004-64.701-16.15-12.925-46.45-13.674-98.449-19.574-144.82zm381.47 32.85c3.8155 0.2131 2.4719 8.7801 2.4414 11.35-2.9125 27 1.0246 54.076-2.0879 81.076-1.275 9.6375 3.0129 22.488-6.4746 29.125-31.575 26.312-70.5 41.662-105.03 63.637-27.95 12.438-53.462 30.663-83.137 39.025 5.1375-13.788 23.125-17.751 33.188-27.738 32.238-27.088 68.925-48.15 103.69-71.35 35.838-26.888 3.7992-75.2 12.012-110.84 13.438-5.975 28.577-6.5488 41.852-12.924 1.5094-1.0172 2.6644-1.4125 3.5449-1.3633zm-391.92 1.1387c8.6625 0.1875 3.8875 13.012 6.4375 18.162 5.45 32.35 3.6863 65.974 13.674 97.387 16 13.112 38.813 10.839 57.588 17.701 12.188 4.45 24.7 6.1613 36.75 1.6738 13.35 14.25 28.274 26.763 44.387 37.676-4.15 4.7-13.349-2.65-19.199-3.875-49.338-15.9-97.912-34.738-143.12-60.338-10.988-2.9875-7.8371-16.663-9.0371-24.988-0.15-25.575-5.7-51.649-0.75-76.986 0.9-6.0625 9.1754-4.7121 13.275-6.4121zm420.29 2.0859c13.262 2.3125 27.274-1.4238 40.174 0.7012 3.3375 33.188-14.137 70.299-4.1367 103.11 54.962 20.575 109.35 44.952 163.04 69.414 6.1875 4.9875-6.1879 4.475-10.088 4-55.975-8.3-109.67-27.275-163.6-43.9-13.375-1.6625-11.974-18.138-14.611-28.051-3.9625-34.812-12.8-70.925-10.775-105.28zm-491.19 3.9903c2.6397-0.051 5.8266 0.4406 9.6641 1.5859 5.1875 0.4 10.4 1.2004 15.4 2.7129 7.7875 25.9 5.4121 53.675 10.912 80.037-57.325 43-127.27 67.199-191.64 98.762-8.275 3.9625-20.6 14.388-28.025 9.6504 43.538-36.65 91.488-67.938 137.78-101.15 17.775-10.412 39.424-25.638 35.611-49.25 0.16406-15.083-8.1792-41.994 10.299-42.348zm530.37 154.76c-1.0576 0.095-2.1379 0.7981-3.2676 2.3965-11.862 27.775 18.188 50.525 41.613 58.4 23.05 1.525 51.787 3.0367 69.949-12.863 17.1-7.6625 20.325 12.739 26.312 20.164-49.525 17.238-103.05 5.8621-154.44 6.0371-27.275 2.725-54.85 2.1992-81.812-2.8008-5.175 16.2 11.525 32.25 27.662 30.787 52.6 9.9375 106.49-9.0367 158.21 7.8633h47.312c14.688-11.275 38.763-8.6379 47.963-27.588 11.1-18.388-8.475-38.587-26.625-40.85-42.15-22.55-93.813-13.188-138.09-31.688-6.043 0.7516-10.212-10.272-14.795-9.8594z" transform="scale(.8)"/>
<path d="m1655.7 197.67c-1.7019 2.8825-2.4696 6.5384-1.1582 9.7305-4.1896-0.88071-8.4014-1.6472-12.631-2.3106-2.1711 4.5056-0.7624 10.01 2.4043 13.672-3.4025-1.1343-8.3893-0.98634-9.6797 3.0996-1.3193 3.28-0.2157 7.2247 2.3028 9.623-3.8282-0.8816-7.3643-3.1553-11.225-3.6719-3.0067 0.78218-2.7395 4.8518-2.6641 7.3047 0.08 2.1289 1.3861 3.0314 2.0527 4.5055-7.1928-1.2655-14.714-1.4604-21.783 0.60156 1.1888 2.2383 2.4983 4.4322 4.1582 6.3574-3.9839-0.85901-9.314 1.1912-9.3027 5.8926-0.2043 2.9345 1.2221 5.885 3.5371 7.6621-4.7207 4.8777-0.8851 13.749 5.514 14.797 7.344 2.1298 15.108 1.9172 22.574 3.4534 9.5811 1.2132 19.981 2.5928 29.052-1.5399 5.9653-4.2524 4.7041-13.063 9.9615-17.75 2.3154-0.63483 3.8329-3.3421 3.1113-5.6426 5.0008 0.85772 11.885 1.1148 14.588-4.1641 1.36-2.9938 0.5571-6.624-1.3789-9.1758 5.1939-0.80432 8.0718-4.9195 7.3027-9.7945 5.4096 1.5713 13.164 0.50675 15.514-5.418-0.2358-1.4354 0.057-2.8127 1.6564-1.7135 5.0098 1.0842 11.391 3.3698 15.766-0.48377 4.0718-5.0128-0.5934-13.735-7.0254-13.127-20.718-4.6657-41.52-9.0095-62.506-12.299zm116.96 57.162c-2.5005-0.46621-1.7714 2.6792-1.1133 3.9668 0.3601 1.6428 0.7838 3.2892 1.5391 4.8066-3.709-0.44863-7.4831-0.40359-11.174 0.1875-0.6952 2.2186-0.7724 4.6406-0.1192 6.8789-4.305-0.89202-9.9658-2.6395-13.426 1.1133-1.2377 1.7608-1.5684 4.0546-1.1231 6.1367-8.009-1.6328-15.992-4.6549-24.281-4.0703-2.2318 0.9405-3.7279 3.2154-4.0157 5.582-7.9347-1.9197-16.984-3.8846-24.631-0.10938-1.6057 1.5916-0.9716 4.4549-0.1035 5.8887-3.9837-0.79215-8.5436-2.9772-12.469-1.2734-4.027 3.4588-3.3728 10.155 0.168 13.717-2.5724-0.21567-5.7347-1.3548-7.9492-0.80859-3.0639 6.478 1.2009 14.402 7.5273 16.922-1.4853 5.2268 3.4929 10.024 8.4492 10.596 2.167 0.23774 2.6929 0.41826 0.1856 0.25195-2.8974-0.33695-6.2967 0.30944-7.4175 3.3845-2.2919 4.9939 1.4995 12.058 7.3102 11.703 2.4937 0.43066 5.1918 0.35184 7.4881 1.4812-0.2683 3.513 2.8614 6.053 4.9317 8.1602-0.6163 5.736 5.1484 10.337 10.586 9.9556 27.186 4.4853 54.062 11.469 81.433 14.546 7.1512-3.6314 4.4483-16.113-3.3691-16.926-1.0168-0.0901-2.9582-0.0285-2.4707-1.5586-1.1292-1.4285-1.216-3.1401 0.043-4.4316 1.8225-5.2696-2.257-11.769-7.8847-12.139 4.6962-4.2184 3.4824-13.009-2.4825-15.451-3.4596-2.1264-8.1766-2.4746-11.662-0.22266-2.5567-0.43414-6.461-0.14763-8.332-1.0352 1.7894-2.6966 1.0133-6.7213 0.3164-9.0762 3.3069-0.6125 4.8143-4.2772 5.0176-7.293 3.6525-0.2789 7.0509-3.3204 7.3262-7.0449 6.8424 1.7921 14.822 3.8052 21.346-0.0254 1.5253-1.6601 1.5486-4.5152 1.5332-6.248 5.1716 1.7432 12.522 2.2476 15.82-3.0606 0.4301-1.3949 0.7898-3.5588 2.7402-2.5371 4.3829 0.74736 10.037-1.3729 10.484-6.3809 0.5253-1.4735-1.0375-3.4378 0.8398-4.1348 4.4478-4.3141 1.6819-12.103-3.4918-14.517-7.6584-4.3376-16.792-0.75876-24.935-3.1895-7.4729-1.4884-14.922-3.849-22.636-3.7444zm-126.95 81.938c-4.5271 0.86785-8.7555 5.0503-13.532 2.7118-6.1396-1.3823-14.177-2.0852-18.499 3.5382-2.7616 3.7489-0.8944 9.8261 3.4649 11.422-5.3301 2.8937-4.9735 11.456 0.2832 14.262 2.3409 1.592 5.7625 1.4221 7.9023 2.8516-0.019 5.3838 5.1437 9.2558 10.09 9.9824-0.4358 3.6057 2.4193 6.9874 4.6933 8.873-2.437 0.81718-1.7965 3.6686-0.6506 5.2588 0.6218 1.9443 2.6689 4.062 2.6253 5.6318-1.7848 0.96237-2.5295 3.2832-3.2305 4.7676-3.7079-0.85297-7.9206 2.6069-6.7578 6.5293 0.7224 5.9909 6.7023 9.5321 12.057 10.852-0.8487 3.0394 0.6432 6.2466 2.7734 8.3887-2.803-0.51797-5.9158-1.7258-8.6835-0.85742-2.2501 3.0108-4.9418 5.9706-5.7364 9.7637-6.0444-2.8059-13.943-5.5583-20.012-1.3535-1.8481 1.7984-1.4842 4.8894-0.4707 6.8711-2.1105-0.35659-4.5084 2.2188-2.642 3.9829 14.579 16.287 36.164 23.737 57.04 27.888 17.392 3.5962 35.112 5.7058 52.225 10.585 0.9408-6.379 10.227-5.3593 11.68-11.473 0.8314-2.1985-0.4058-4.5547-2.0664-6.0293 1.47-1.4289 0.1378-4.5689 2.4961-5.0156 4.6244-2.7377 3.8569-10.467-1.1074-12.436-2.0625-1.2038-4.5781-1.3311-6.7754-1.9648 0.4059-4.3653-3.6159-8.1113-7.791-8.418 4.469-4.5555 0.2489-13.195-6.0117-13.002-1.5674-0.15706-3.1946 0.14667-4.7188-0.33008 1.8255-4.0882-1.2075-9.2618-5.1543-10.209 4.1999-4.3392 1.4838-12.696-4.2812-13.963 0.9727-5.9422-5.5023-10.896-11.079-9.5384-4.2103-0.34601-9.4149-0.65741-12.915-1.7234 5.2161-3.6109 4.2329-12.71-1.8046-14.875-3.6752-1.2434-7.6543-0.43793-11.404-1.3438 3.8385-5.4249-1.0545-13.682-7.5411-13.527-1.5933-0.0864-0.2213-2.2058-0.9707-3.1914-0.6417-2.6176-2.2166-4.9627-4.2793-6.6777 3.7738-1.4028 7.8112-3.1581 10.232-6.4844 0.9373-5.5733-3.4469-12.041-9.4473-11.746z" fill="#008000"/>
</g>
</svg>
